<mxfile host="Electron" modified="2025-05-11T13:37:41.228Z" agent="Mozilla/5.0 (X11; Linux x86_64) AppleWebKit/537.36 (KHTML, like Gecko) draw.io/24.6.4 Chrome/124.0.6367.207 Electron/30.0.6 Safari/537.36" etag="T0ciN527qIcqmi-Tc9vk" version="24.6.4" type="device">
  <diagram name="Page-1" id="1bQ_0wPUb9Feg5f2X1Ic">
    <mxGraphModel dx="3713" dy="2773" grid="1" gridSize="10" guides="1" tooltips="1" connect="1" arrows="1" fold="1" page="1" pageScale="1" pageWidth="583" pageHeight="827" math="0" shadow="0">
      <root>
        <mxCell id="0" />
        <mxCell id="1" parent="0" />
        <mxCell id="DHZ5L4yzA53gt9P-dgy5-1" value="User" style="swimlane;fontStyle=1;align=center;verticalAlign=top;childLayout=stackLayout;horizontal=1;startSize=22.8;horizontalStack=0;resizeParent=1;resizeParentMax=0;resizeLast=0;collapsible=0;marginBottom=0;" vertex="1" parent="1">
          <mxGeometry x="523" y="20" width="171" height="352.8" as="geometry" />
        </mxCell>
        <mxCell id="DHZ5L4yzA53gt9P-dgy5-2" value="+String id" style="text;strokeColor=none;fillColor=none;align=left;verticalAlign=top;spacingLeft=4;spacingRight=4;overflow=hidden;rotatable=0;points=[[0,0.5],[1,0.5]];portConstraint=eastwest;" vertex="1" parent="DHZ5L4yzA53gt9P-dgy5-1">
          <mxGeometry y="22.8" width="171" height="23" as="geometry" />
        </mxCell>
        <mxCell id="DHZ5L4yzA53gt9P-dgy5-3" value="+String email" style="text;strokeColor=none;fillColor=none;align=left;verticalAlign=top;spacingLeft=4;spacingRight=4;overflow=hidden;rotatable=0;points=[[0,0.5],[1,0.5]];portConstraint=eastwest;" vertex="1" parent="DHZ5L4yzA53gt9P-dgy5-1">
          <mxGeometry y="45.8" width="171" height="23" as="geometry" />
        </mxCell>
        <mxCell id="DHZ5L4yzA53gt9P-dgy5-4" value="+String password" style="text;strokeColor=none;fillColor=none;align=left;verticalAlign=top;spacingLeft=4;spacingRight=4;overflow=hidden;rotatable=0;points=[[0,0.5],[1,0.5]];portConstraint=eastwest;" vertex="1" parent="DHZ5L4yzA53gt9P-dgy5-1">
          <mxGeometry y="68.8" width="171" height="23" as="geometry" />
        </mxCell>
        <mxCell id="DHZ5L4yzA53gt9P-dgy5-5" value="+String role" style="text;strokeColor=none;fillColor=none;align=left;verticalAlign=top;spacingLeft=4;spacingRight=4;overflow=hidden;rotatable=0;points=[[0,0.5],[1,0.5]];portConstraint=eastwest;" vertex="1" parent="DHZ5L4yzA53gt9P-dgy5-1">
          <mxGeometry y="91.8" width="171" height="23" as="geometry" />
        </mxCell>
        <mxCell id="DHZ5L4yzA53gt9P-dgy5-6" value="+DateTime createdAt" style="text;strokeColor=none;fillColor=none;align=left;verticalAlign=top;spacingLeft=4;spacingRight=4;overflow=hidden;rotatable=0;points=[[0,0.5],[1,0.5]];portConstraint=eastwest;" vertex="1" parent="DHZ5L4yzA53gt9P-dgy5-1">
          <mxGeometry y="114.8" width="171" height="23" as="geometry" />
        </mxCell>
        <mxCell id="DHZ5L4yzA53gt9P-dgy5-7" value="+DateTime updatedAt" style="text;strokeColor=none;fillColor=none;align=left;verticalAlign=top;spacingLeft=4;spacingRight=4;overflow=hidden;rotatable=0;points=[[0,0.5],[1,0.5]];portConstraint=eastwest;" vertex="1" parent="DHZ5L4yzA53gt9P-dgy5-1">
          <mxGeometry y="137.8" width="171" height="23" as="geometry" />
        </mxCell>
        <mxCell id="DHZ5L4yzA53gt9P-dgy5-8" style="line;strokeWidth=1;fillColor=none;align=left;verticalAlign=middle;spacingTop=-1;spacingLeft=3;spacingRight=3;rotatable=0;labelPosition=right;points=[];portConstraint=eastwest;strokeColor=inherit;" vertex="1" parent="DHZ5L4yzA53gt9P-dgy5-1">
          <mxGeometry y="160.8" width="171" height="8" as="geometry" />
        </mxCell>
        <mxCell id="DHZ5L4yzA53gt9P-dgy5-9" value="+createUser()" style="text;strokeColor=none;fillColor=none;align=left;verticalAlign=top;spacingLeft=4;spacingRight=4;overflow=hidden;rotatable=0;points=[[0,0.5],[1,0.5]];portConstraint=eastwest;" vertex="1" parent="DHZ5L4yzA53gt9P-dgy5-1">
          <mxGeometry y="168.8" width="171" height="23" as="geometry" />
        </mxCell>
        <mxCell id="DHZ5L4yzA53gt9P-dgy5-10" value="+getUser()" style="text;strokeColor=none;fillColor=none;align=left;verticalAlign=top;spacingLeft=4;spacingRight=4;overflow=hidden;rotatable=0;points=[[0,0.5],[1,0.5]];portConstraint=eastwest;" vertex="1" parent="DHZ5L4yzA53gt9P-dgy5-1">
          <mxGeometry y="191.8" width="171" height="23" as="geometry" />
        </mxCell>
        <mxCell id="DHZ5L4yzA53gt9P-dgy5-11" value="+updateUser()" style="text;strokeColor=none;fillColor=none;align=left;verticalAlign=top;spacingLeft=4;spacingRight=4;overflow=hidden;rotatable=0;points=[[0,0.5],[1,0.5]];portConstraint=eastwest;" vertex="1" parent="DHZ5L4yzA53gt9P-dgy5-1">
          <mxGeometry y="214.8" width="171" height="23" as="geometry" />
        </mxCell>
        <mxCell id="DHZ5L4yzA53gt9P-dgy5-12" value="+deleteUser()" style="text;strokeColor=none;fillColor=none;align=left;verticalAlign=top;spacingLeft=4;spacingRight=4;overflow=hidden;rotatable=0;points=[[0,0.5],[1,0.5]];portConstraint=eastwest;" vertex="1" parent="DHZ5L4yzA53gt9P-dgy5-1">
          <mxGeometry y="237.8" width="171" height="23" as="geometry" />
        </mxCell>
        <mxCell id="DHZ5L4yzA53gt9P-dgy5-13" value="+getDriver()" style="text;strokeColor=none;fillColor=none;align=left;verticalAlign=top;spacingLeft=4;spacingRight=4;overflow=hidden;rotatable=0;points=[[0,0.5],[1,0.5]];portConstraint=eastwest;" vertex="1" parent="DHZ5L4yzA53gt9P-dgy5-1">
          <mxGeometry y="260.8" width="171" height="23" as="geometry" />
        </mxCell>
        <mxCell id="DHZ5L4yzA53gt9P-dgy5-14" value="+authenticate()" style="text;strokeColor=none;fillColor=none;align=left;verticalAlign=top;spacingLeft=4;spacingRight=4;overflow=hidden;rotatable=0;points=[[0,0.5],[1,0.5]];portConstraint=eastwest;" vertex="1" parent="DHZ5L4yzA53gt9P-dgy5-1">
          <mxGeometry y="283.8" width="171" height="23" as="geometry" />
        </mxCell>
        <mxCell id="DHZ5L4yzA53gt9P-dgy5-15" value="+changePassword()" style="text;strokeColor=none;fillColor=none;align=left;verticalAlign=top;spacingLeft=4;spacingRight=4;overflow=hidden;rotatable=0;points=[[0,0.5],[1,0.5]];portConstraint=eastwest;" vertex="1" parent="DHZ5L4yzA53gt9P-dgy5-1">
          <mxGeometry y="306.8" width="171" height="23" as="geometry" />
        </mxCell>
        <mxCell id="DHZ5L4yzA53gt9P-dgy5-16" value="+resetPassword()" style="text;strokeColor=none;fillColor=none;align=left;verticalAlign=top;spacingLeft=4;spacingRight=4;overflow=hidden;rotatable=0;points=[[0,0.5],[1,0.5]];portConstraint=eastwest;" vertex="1" parent="DHZ5L4yzA53gt9P-dgy5-1">
          <mxGeometry y="329.8" width="171" height="23" as="geometry" />
        </mxCell>
        <mxCell id="DHZ5L4yzA53gt9P-dgy5-17" value="Driver" style="swimlane;fontStyle=1;align=center;verticalAlign=top;childLayout=stackLayout;horizontal=1;startSize=22.285714285714285;horizontalStack=0;resizeParent=1;resizeParentMax=0;resizeLast=0;collapsible=0;marginBottom=0;" vertex="1" parent="1">
          <mxGeometry x="505" y="437" width="206" height="470.2857142857143" as="geometry" />
        </mxCell>
        <mxCell id="DHZ5L4yzA53gt9P-dgy5-18" value="+String id" style="text;strokeColor=none;fillColor=none;align=left;verticalAlign=top;spacingLeft=4;spacingRight=4;overflow=hidden;rotatable=0;points=[[0,0.5],[1,0.5]];portConstraint=eastwest;" vertex="1" parent="DHZ5L4yzA53gt9P-dgy5-17">
          <mxGeometry y="22.285714285714285" width="206" height="22" as="geometry" />
        </mxCell>
        <mxCell id="DHZ5L4yzA53gt9P-dgy5-19" value="+String userId" style="text;strokeColor=none;fillColor=none;align=left;verticalAlign=top;spacingLeft=4;spacingRight=4;overflow=hidden;rotatable=0;points=[[0,0.5],[1,0.5]];portConstraint=eastwest;" vertex="1" parent="DHZ5L4yzA53gt9P-dgy5-17">
          <mxGeometry y="44.285714285714285" width="206" height="22" as="geometry" />
        </mxCell>
        <mxCell id="DHZ5L4yzA53gt9P-dgy5-20" value="+String name" style="text;strokeColor=none;fillColor=none;align=left;verticalAlign=top;spacingLeft=4;spacingRight=4;overflow=hidden;rotatable=0;points=[[0,0.5],[1,0.5]];portConstraint=eastwest;" vertex="1" parent="DHZ5L4yzA53gt9P-dgy5-17">
          <mxGeometry y="66.28571428571428" width="206" height="22" as="geometry" />
        </mxCell>
        <mxCell id="DHZ5L4yzA53gt9P-dgy5-21" value="+String licenseNumber" style="text;strokeColor=none;fillColor=none;align=left;verticalAlign=top;spacingLeft=4;spacingRight=4;overflow=hidden;rotatable=0;points=[[0,0.5],[1,0.5]];portConstraint=eastwest;" vertex="1" parent="DHZ5L4yzA53gt9P-dgy5-17">
          <mxGeometry y="88.28571428571428" width="206" height="22" as="geometry" />
        </mxCell>
        <mxCell id="DHZ5L4yzA53gt9P-dgy5-22" value="+DateTime licenseExpiry" style="text;strokeColor=none;fillColor=none;align=left;verticalAlign=top;spacingLeft=4;spacingRight=4;overflow=hidden;rotatable=0;points=[[0,0.5],[1,0.5]];portConstraint=eastwest;" vertex="1" parent="DHZ5L4yzA53gt9P-dgy5-17">
          <mxGeometry y="110.28571428571428" width="206" height="22" as="geometry" />
        </mxCell>
        <mxCell id="DHZ5L4yzA53gt9P-dgy5-23" value="+String phoneNumber" style="text;strokeColor=none;fillColor=none;align=left;verticalAlign=top;spacingLeft=4;spacingRight=4;overflow=hidden;rotatable=0;points=[[0,0.5],[1,0.5]];portConstraint=eastwest;" vertex="1" parent="DHZ5L4yzA53gt9P-dgy5-17">
          <mxGeometry y="132.28571428571428" width="206" height="22" as="geometry" />
        </mxCell>
        <mxCell id="DHZ5L4yzA53gt9P-dgy5-24" value="+Float driverScore" style="text;strokeColor=none;fillColor=none;align=left;verticalAlign=top;spacingLeft=4;spacingRight=4;overflow=hidden;rotatable=0;points=[[0,0.5],[1,0.5]];portConstraint=eastwest;" vertex="1" parent="DHZ5L4yzA53gt9P-dgy5-17">
          <mxGeometry y="154.28571428571428" width="206" height="22" as="geometry" />
        </mxCell>
        <mxCell id="DHZ5L4yzA53gt9P-dgy5-25" value="+DateTime createdAt" style="text;strokeColor=none;fillColor=none;align=left;verticalAlign=top;spacingLeft=4;spacingRight=4;overflow=hidden;rotatable=0;points=[[0,0.5],[1,0.5]];portConstraint=eastwest;" vertex="1" parent="DHZ5L4yzA53gt9P-dgy5-17">
          <mxGeometry y="176.28571428571428" width="206" height="22" as="geometry" />
        </mxCell>
        <mxCell id="DHZ5L4yzA53gt9P-dgy5-26" value="+DateTime updatedAt" style="text;strokeColor=none;fillColor=none;align=left;verticalAlign=top;spacingLeft=4;spacingRight=4;overflow=hidden;rotatable=0;points=[[0,0.5],[1,0.5]];portConstraint=eastwest;" vertex="1" parent="DHZ5L4yzA53gt9P-dgy5-17">
          <mxGeometry y="198.28571428571428" width="206" height="22" as="geometry" />
        </mxCell>
        <mxCell id="DHZ5L4yzA53gt9P-dgy5-27" style="line;strokeWidth=1;fillColor=none;align=left;verticalAlign=middle;spacingTop=-1;spacingLeft=3;spacingRight=3;rotatable=0;labelPosition=right;points=[];portConstraint=eastwest;strokeColor=inherit;" vertex="1" parent="DHZ5L4yzA53gt9P-dgy5-17">
          <mxGeometry y="220.28571428571428" width="206" height="8" as="geometry" />
        </mxCell>
        <mxCell id="DHZ5L4yzA53gt9P-dgy5-28" value="+createDriver()" style="text;strokeColor=none;fillColor=none;align=left;verticalAlign=top;spacingLeft=4;spacingRight=4;overflow=hidden;rotatable=0;points=[[0,0.5],[1,0.5]];portConstraint=eastwest;" vertex="1" parent="DHZ5L4yzA53gt9P-dgy5-17">
          <mxGeometry y="228.28571428571428" width="206" height="22" as="geometry" />
        </mxCell>
        <mxCell id="DHZ5L4yzA53gt9P-dgy5-29" value="+getDriver()" style="text;strokeColor=none;fillColor=none;align=left;verticalAlign=top;spacingLeft=4;spacingRight=4;overflow=hidden;rotatable=0;points=[[0,0.5],[1,0.5]];portConstraint=eastwest;" vertex="1" parent="DHZ5L4yzA53gt9P-dgy5-17">
          <mxGeometry y="250.28571428571428" width="206" height="22" as="geometry" />
        </mxCell>
        <mxCell id="DHZ5L4yzA53gt9P-dgy5-30" value="+updateDriver()" style="text;strokeColor=none;fillColor=none;align=left;verticalAlign=top;spacingLeft=4;spacingRight=4;overflow=hidden;rotatable=0;points=[[0,0.5],[1,0.5]];portConstraint=eastwest;" vertex="1" parent="DHZ5L4yzA53gt9P-dgy5-17">
          <mxGeometry y="272.2857142857143" width="206" height="22" as="geometry" />
        </mxCell>
        <mxCell id="DHZ5L4yzA53gt9P-dgy5-31" value="+deleteDriver()" style="text;strokeColor=none;fillColor=none;align=left;verticalAlign=top;spacingLeft=4;spacingRight=4;overflow=hidden;rotatable=0;points=[[0,0.5],[1,0.5]];portConstraint=eastwest;" vertex="1" parent="DHZ5L4yzA53gt9P-dgy5-17">
          <mxGeometry y="294.2857142857143" width="206" height="22" as="geometry" />
        </mxCell>
        <mxCell id="DHZ5L4yzA53gt9P-dgy5-32" value="+getTrips()" style="text;strokeColor=none;fillColor=none;align=left;verticalAlign=top;spacingLeft=4;spacingRight=4;overflow=hidden;rotatable=0;points=[[0,0.5],[1,0.5]];portConstraint=eastwest;" vertex="1" parent="DHZ5L4yzA53gt9P-dgy5-17">
          <mxGeometry y="316.2857142857143" width="206" height="22" as="geometry" />
        </mxCell>
        <mxCell id="DHZ5L4yzA53gt9P-dgy5-33" value="+getEvaluations()" style="text;strokeColor=none;fillColor=none;align=left;verticalAlign=top;spacingLeft=4;spacingRight=4;overflow=hidden;rotatable=0;points=[[0,0.5],[1,0.5]];portConstraint=eastwest;" vertex="1" parent="DHZ5L4yzA53gt9P-dgy5-17">
          <mxGeometry y="338.2857142857143" width="206" height="22" as="geometry" />
        </mxCell>
        <mxCell id="DHZ5L4yzA53gt9P-dgy5-34" value="+getAssignedVehicles()" style="text;strokeColor=none;fillColor=none;align=left;verticalAlign=top;spacingLeft=4;spacingRight=4;overflow=hidden;rotatable=0;points=[[0,0.5],[1,0.5]];portConstraint=eastwest;" vertex="1" parent="DHZ5L4yzA53gt9P-dgy5-17">
          <mxGeometry y="360.2857142857143" width="206" height="22" as="geometry" />
        </mxCell>
        <mxCell id="DHZ5L4yzA53gt9P-dgy5-35" value="+getAIRecommendations()" style="text;strokeColor=none;fillColor=none;align=left;verticalAlign=top;spacingLeft=4;spacingRight=4;overflow=hidden;rotatable=0;points=[[0,0.5],[1,0.5]];portConstraint=eastwest;" vertex="1" parent="DHZ5L4yzA53gt9P-dgy5-17">
          <mxGeometry y="382.2857142857143" width="206" height="22" as="geometry" />
        </mxCell>
        <mxCell id="DHZ5L4yzA53gt9P-dgy5-36" value="+calculateDriverScore()" style="text;strokeColor=none;fillColor=none;align=left;verticalAlign=top;spacingLeft=4;spacingRight=4;overflow=hidden;rotatable=0;points=[[0,0.5],[1,0.5]];portConstraint=eastwest;" vertex="1" parent="DHZ5L4yzA53gt9P-dgy5-17">
          <mxGeometry y="404.2857142857143" width="206" height="22" as="geometry" />
        </mxCell>
        <mxCell id="DHZ5L4yzA53gt9P-dgy5-37" value="+updateLicense()" style="text;strokeColor=none;fillColor=none;align=left;verticalAlign=top;spacingLeft=4;spacingRight=4;overflow=hidden;rotatable=0;points=[[0,0.5],[1,0.5]];portConstraint=eastwest;" vertex="1" parent="DHZ5L4yzA53gt9P-dgy5-17">
          <mxGeometry y="426.2857142857143" width="206" height="22" as="geometry" />
        </mxCell>
        <mxCell id="DHZ5L4yzA53gt9P-dgy5-38" value="+updatePhoneNumber()" style="text;strokeColor=none;fillColor=none;align=left;verticalAlign=top;spacingLeft=4;spacingRight=4;overflow=hidden;rotatable=0;points=[[0,0.5],[1,0.5]];portConstraint=eastwest;" vertex="1" parent="DHZ5L4yzA53gt9P-dgy5-17">
          <mxGeometry y="448.2857142857143" width="206" height="22" as="geometry" />
        </mxCell>
        <mxCell id="DHZ5L4yzA53gt9P-dgy5-39" value="Vehicle" style="swimlane;fontStyle=1;align=center;verticalAlign=top;childLayout=stackLayout;horizontal=1;startSize=22.17391304347826;horizontalStack=0;resizeParent=1;resizeParentMax=0;resizeLast=0;collapsible=0;marginBottom=0;" vertex="1" parent="1">
          <mxGeometry x="643" y="2066" width="211" height="514.1739130434783" as="geometry" />
        </mxCell>
        <mxCell id="DHZ5L4yzA53gt9P-dgy5-40" value="+String id" style="text;strokeColor=none;fillColor=none;align=left;verticalAlign=top;spacingLeft=4;spacingRight=4;overflow=hidden;rotatable=0;points=[[0,0.5],[1,0.5]];portConstraint=eastwest;" vertex="1" parent="DHZ5L4yzA53gt9P-dgy5-39">
          <mxGeometry y="22.17391304347826" width="211" height="22" as="geometry" />
        </mxCell>
        <mxCell id="DHZ5L4yzA53gt9P-dgy5-41" value="+String model" style="text;strokeColor=none;fillColor=none;align=left;verticalAlign=top;spacingLeft=4;spacingRight=4;overflow=hidden;rotatable=0;points=[[0,0.5],[1,0.5]];portConstraint=eastwest;" vertex="1" parent="DHZ5L4yzA53gt9P-dgy5-39">
          <mxGeometry y="44.173913043478265" width="211" height="22" as="geometry" />
        </mxCell>
        <mxCell id="DHZ5L4yzA53gt9P-dgy5-42" value="+Int year" style="text;strokeColor=none;fillColor=none;align=left;verticalAlign=top;spacingLeft=4;spacingRight=4;overflow=hidden;rotatable=0;points=[[0,0.5],[1,0.5]];portConstraint=eastwest;" vertex="1" parent="DHZ5L4yzA53gt9P-dgy5-39">
          <mxGeometry y="66.17391304347827" width="211" height="22" as="geometry" />
        </mxCell>
        <mxCell id="DHZ5L4yzA53gt9P-dgy5-43" value="+String plateNumber" style="text;strokeColor=none;fillColor=none;align=left;verticalAlign=top;spacingLeft=4;spacingRight=4;overflow=hidden;rotatable=0;points=[[0,0.5],[1,0.5]];portConstraint=eastwest;" vertex="1" parent="DHZ5L4yzA53gt9P-dgy5-39">
          <mxGeometry y="88.17391304347827" width="211" height="22" as="geometry" />
        </mxCell>
        <mxCell id="DHZ5L4yzA53gt9P-dgy5-44" value="+String status" style="text;strokeColor=none;fillColor=none;align=left;verticalAlign=top;spacingLeft=4;spacingRight=4;overflow=hidden;rotatable=0;points=[[0,0.5],[1,0.5]];portConstraint=eastwest;" vertex="1" parent="DHZ5L4yzA53gt9P-dgy5-39">
          <mxGeometry y="110.17391304347827" width="211" height="22" as="geometry" />
        </mxCell>
        <mxCell id="DHZ5L4yzA53gt9P-dgy5-45" value="+String fuelType" style="text;strokeColor=none;fillColor=none;align=left;verticalAlign=top;spacingLeft=4;spacingRight=4;overflow=hidden;rotatable=0;points=[[0,0.5],[1,0.5]];portConstraint=eastwest;" vertex="1" parent="DHZ5L4yzA53gt9P-dgy5-39">
          <mxGeometry y="132.17391304347825" width="211" height="22" as="geometry" />
        </mxCell>
        <mxCell id="DHZ5L4yzA53gt9P-dgy5-46" value="+Float fuelLevel" style="text;strokeColor=none;fillColor=none;align=left;verticalAlign=top;spacingLeft=4;spacingRight=4;overflow=hidden;rotatable=0;points=[[0,0.5],[1,0.5]];portConstraint=eastwest;" vertex="1" parent="DHZ5L4yzA53gt9P-dgy5-39">
          <mxGeometry y="154.17391304347825" width="211" height="22" as="geometry" />
        </mxCell>
        <mxCell id="DHZ5L4yzA53gt9P-dgy5-47" value="+DateTime insuranceExpiry" style="text;strokeColor=none;fillColor=none;align=left;verticalAlign=top;spacingLeft=4;spacingRight=4;overflow=hidden;rotatable=0;points=[[0,0.5],[1,0.5]];portConstraint=eastwest;" vertex="1" parent="DHZ5L4yzA53gt9P-dgy5-39">
          <mxGeometry y="176.17391304347825" width="211" height="22" as="geometry" />
        </mxCell>
        <mxCell id="DHZ5L4yzA53gt9P-dgy5-48" value="+DateTime createdAt" style="text;strokeColor=none;fillColor=none;align=left;verticalAlign=top;spacingLeft=4;spacingRight=4;overflow=hidden;rotatable=0;points=[[0,0.5],[1,0.5]];portConstraint=eastwest;" vertex="1" parent="DHZ5L4yzA53gt9P-dgy5-39">
          <mxGeometry y="198.17391304347825" width="211" height="22" as="geometry" />
        </mxCell>
        <mxCell id="DHZ5L4yzA53gt9P-dgy5-49" value="+DateTime updatedAt" style="text;strokeColor=none;fillColor=none;align=left;verticalAlign=top;spacingLeft=4;spacingRight=4;overflow=hidden;rotatable=0;points=[[0,0.5],[1,0.5]];portConstraint=eastwest;" vertex="1" parent="DHZ5L4yzA53gt9P-dgy5-39">
          <mxGeometry y="220.17391304347825" width="211" height="22" as="geometry" />
        </mxCell>
        <mxCell id="DHZ5L4yzA53gt9P-dgy5-50" style="line;strokeWidth=1;fillColor=none;align=left;verticalAlign=middle;spacingTop=-1;spacingLeft=3;spacingRight=3;rotatable=0;labelPosition=right;points=[];portConstraint=eastwest;strokeColor=inherit;" vertex="1" parent="DHZ5L4yzA53gt9P-dgy5-39">
          <mxGeometry y="242.17391304347825" width="211" height="8" as="geometry" />
        </mxCell>
        <mxCell id="DHZ5L4yzA53gt9P-dgy5-51" value="+createVehicle()" style="text;strokeColor=none;fillColor=none;align=left;verticalAlign=top;spacingLeft=4;spacingRight=4;overflow=hidden;rotatable=0;points=[[0,0.5],[1,0.5]];portConstraint=eastwest;" vertex="1" parent="DHZ5L4yzA53gt9P-dgy5-39">
          <mxGeometry y="250.17391304347825" width="211" height="22" as="geometry" />
        </mxCell>
        <mxCell id="DHZ5L4yzA53gt9P-dgy5-52" value="+getVehicle()" style="text;strokeColor=none;fillColor=none;align=left;verticalAlign=top;spacingLeft=4;spacingRight=4;overflow=hidden;rotatable=0;points=[[0,0.5],[1,0.5]];portConstraint=eastwest;" vertex="1" parent="DHZ5L4yzA53gt9P-dgy5-39">
          <mxGeometry y="272.17391304347825" width="211" height="22" as="geometry" />
        </mxCell>
        <mxCell id="DHZ5L4yzA53gt9P-dgy5-53" value="+updateVehicle()" style="text;strokeColor=none;fillColor=none;align=left;verticalAlign=top;spacingLeft=4;spacingRight=4;overflow=hidden;rotatable=0;points=[[0,0.5],[1,0.5]];portConstraint=eastwest;" vertex="1" parent="DHZ5L4yzA53gt9P-dgy5-39">
          <mxGeometry y="294.17391304347825" width="211" height="22" as="geometry" />
        </mxCell>
        <mxCell id="DHZ5L4yzA53gt9P-dgy5-54" value="+deleteVehicle()" style="text;strokeColor=none;fillColor=none;align=left;verticalAlign=top;spacingLeft=4;spacingRight=4;overflow=hidden;rotatable=0;points=[[0,0.5],[1,0.5]];portConstraint=eastwest;" vertex="1" parent="DHZ5L4yzA53gt9P-dgy5-39">
          <mxGeometry y="316.17391304347825" width="211" height="22" as="geometry" />
        </mxCell>
        <mxCell id="DHZ5L4yzA53gt9P-dgy5-55" value="+getComponents()" style="text;strokeColor=none;fillColor=none;align=left;verticalAlign=top;spacingLeft=4;spacingRight=4;overflow=hidden;rotatable=0;points=[[0,0.5],[1,0.5]];portConstraint=eastwest;" vertex="1" parent="DHZ5L4yzA53gt9P-dgy5-39">
          <mxGeometry y="338.17391304347825" width="211" height="22" as="geometry" />
        </mxCell>
        <mxCell id="DHZ5L4yzA53gt9P-dgy5-56" value="+getTrips()" style="text;strokeColor=none;fillColor=none;align=left;verticalAlign=top;spacingLeft=4;spacingRight=4;overflow=hidden;rotatable=0;points=[[0,0.5],[1,0.5]];portConstraint=eastwest;" vertex="1" parent="DHZ5L4yzA53gt9P-dgy5-39">
          <mxGeometry y="360.17391304347825" width="211" height="22" as="geometry" />
        </mxCell>
        <mxCell id="DHZ5L4yzA53gt9P-dgy5-57" value="+getAlerts()" style="text;strokeColor=none;fillColor=none;align=left;verticalAlign=top;spacingLeft=4;spacingRight=4;overflow=hidden;rotatable=0;points=[[0,0.5],[1,0.5]];portConstraint=eastwest;" vertex="1" parent="DHZ5L4yzA53gt9P-dgy5-39">
          <mxGeometry y="382.17391304347825" width="211" height="22" as="geometry" />
        </mxCell>
        <mxCell id="DHZ5L4yzA53gt9P-dgy5-58" value="+getMaintenance()" style="text;strokeColor=none;fillColor=none;align=left;verticalAlign=top;spacingLeft=4;spacingRight=4;overflow=hidden;rotatable=0;points=[[0,0.5],[1,0.5]];portConstraint=eastwest;" vertex="1" parent="DHZ5L4yzA53gt9P-dgy5-39">
          <mxGeometry y="404.17391304347825" width="211" height="22" as="geometry" />
        </mxCell>
        <mxCell id="DHZ5L4yzA53gt9P-dgy5-59" value="+getAssignedDrivers()" style="text;strokeColor=none;fillColor=none;align=left;verticalAlign=top;spacingLeft=4;spacingRight=4;overflow=hidden;rotatable=0;points=[[0,0.5],[1,0.5]];portConstraint=eastwest;" vertex="1" parent="DHZ5L4yzA53gt9P-dgy5-39">
          <mxGeometry y="426.17391304347825" width="211" height="22" as="geometry" />
        </mxCell>
        <mxCell id="DHZ5L4yzA53gt9P-dgy5-60" value="+getAIRecommendations()" style="text;strokeColor=none;fillColor=none;align=left;verticalAlign=top;spacingLeft=4;spacingRight=4;overflow=hidden;rotatable=0;points=[[0,0.5],[1,0.5]];portConstraint=eastwest;" vertex="1" parent="DHZ5L4yzA53gt9P-dgy5-39">
          <mxGeometry y="448.17391304347825" width="211" height="22" as="geometry" />
        </mxCell>
        <mxCell id="DHZ5L4yzA53gt9P-dgy5-61" value="+updateFuelLevel()" style="text;strokeColor=none;fillColor=none;align=left;verticalAlign=top;spacingLeft=4;spacingRight=4;overflow=hidden;rotatable=0;points=[[0,0.5],[1,0.5]];portConstraint=eastwest;" vertex="1" parent="DHZ5L4yzA53gt9P-dgy5-39">
          <mxGeometry y="470.17391304347825" width="211" height="22" as="geometry" />
        </mxCell>
        <mxCell id="DHZ5L4yzA53gt9P-dgy5-62" value="+checkInsuranceStatus()" style="text;strokeColor=none;fillColor=none;align=left;verticalAlign=top;spacingLeft=4;spacingRight=4;overflow=hidden;rotatable=0;points=[[0,0.5],[1,0.5]];portConstraint=eastwest;" vertex="1" parent="DHZ5L4yzA53gt9P-dgy5-39">
          <mxGeometry y="492.17391304347825" width="211" height="22" as="geometry" />
        </mxCell>
        <mxCell id="DHZ5L4yzA53gt9P-dgy5-63" value="Component" style="swimlane;fontStyle=1;align=center;verticalAlign=top;childLayout=stackLayout;horizontal=1;startSize=22.42105263157895;horizontalStack=0;resizeParent=1;resizeParentMax=0;resizeLast=0;collapsible=0;marginBottom=0;" vertex="1" parent="1">
          <mxGeometry x="788" y="2651" width="206" height="426.42105263157896" as="geometry" />
        </mxCell>
        <mxCell id="DHZ5L4yzA53gt9P-dgy5-64" value="+String id" style="text;strokeColor=none;fillColor=none;align=left;verticalAlign=top;spacingLeft=4;spacingRight=4;overflow=hidden;rotatable=0;points=[[0,0.5],[1,0.5]];portConstraint=eastwest;" vertex="1" parent="DHZ5L4yzA53gt9P-dgy5-63">
          <mxGeometry y="22.42105263157895" width="206" height="22" as="geometry" />
        </mxCell>
        <mxCell id="DHZ5L4yzA53gt9P-dgy5-65" value="+String vehicleId" style="text;strokeColor=none;fillColor=none;align=left;verticalAlign=top;spacingLeft=4;spacingRight=4;overflow=hidden;rotatable=0;points=[[0,0.5],[1,0.5]];portConstraint=eastwest;" vertex="1" parent="DHZ5L4yzA53gt9P-dgy5-63">
          <mxGeometry y="44.421052631578945" width="206" height="22" as="geometry" />
        </mxCell>
        <mxCell id="DHZ5L4yzA53gt9P-dgy5-66" value="+String componentType" style="text;strokeColor=none;fillColor=none;align=left;verticalAlign=top;spacingLeft=4;spacingRight=4;overflow=hidden;rotatable=0;points=[[0,0.5],[1,0.5]];portConstraint=eastwest;" vertex="1" parent="DHZ5L4yzA53gt9P-dgy5-63">
          <mxGeometry y="66.42105263157895" width="206" height="22" as="geometry" />
        </mxCell>
        <mxCell id="DHZ5L4yzA53gt9P-dgy5-67" value="+String name" style="text;strokeColor=none;fillColor=none;align=left;verticalAlign=top;spacingLeft=4;spacingRight=4;overflow=hidden;rotatable=0;points=[[0,0.5],[1,0.5]];portConstraint=eastwest;" vertex="1" parent="DHZ5L4yzA53gt9P-dgy5-63">
          <mxGeometry y="88.42105263157895" width="206" height="22" as="geometry" />
        </mxCell>
        <mxCell id="DHZ5L4yzA53gt9P-dgy5-68" value="+String status" style="text;strokeColor=none;fillColor=none;align=left;verticalAlign=top;spacingLeft=4;spacingRight=4;overflow=hidden;rotatable=0;points=[[0,0.5],[1,0.5]];portConstraint=eastwest;" vertex="1" parent="DHZ5L4yzA53gt9P-dgy5-63">
          <mxGeometry y="110.42105263157895" width="206" height="22" as="geometry" />
        </mxCell>
        <mxCell id="DHZ5L4yzA53gt9P-dgy5-69" value="+Float healthScore" style="text;strokeColor=none;fillColor=none;align=left;verticalAlign=top;spacingLeft=4;spacingRight=4;overflow=hidden;rotatable=0;points=[[0,0.5],[1,0.5]];portConstraint=eastwest;" vertex="1" parent="DHZ5L4yzA53gt9P-dgy5-63">
          <mxGeometry y="132.42105263157896" width="206" height="22" as="geometry" />
        </mxCell>
        <mxCell id="DHZ5L4yzA53gt9P-dgy5-70" value="+Int expectedLifespan" style="text;strokeColor=none;fillColor=none;align=left;verticalAlign=top;spacingLeft=4;spacingRight=4;overflow=hidden;rotatable=0;points=[[0,0.5],[1,0.5]];portConstraint=eastwest;" vertex="1" parent="DHZ5L4yzA53gt9P-dgy5-63">
          <mxGeometry y="154.42105263157896" width="206" height="22" as="geometry" />
        </mxCell>
        <mxCell id="DHZ5L4yzA53gt9P-dgy5-71" value="+Json metadata" style="text;strokeColor=none;fillColor=none;align=left;verticalAlign=top;spacingLeft=4;spacingRight=4;overflow=hidden;rotatable=0;points=[[0,0.5],[1,0.5]];portConstraint=eastwest;" vertex="1" parent="DHZ5L4yzA53gt9P-dgy5-63">
          <mxGeometry y="176.42105263157896" width="206" height="22" as="geometry" />
        </mxCell>
        <mxCell id="DHZ5L4yzA53gt9P-dgy5-72" value="+DateTime createdAt" style="text;strokeColor=none;fillColor=none;align=left;verticalAlign=top;spacingLeft=4;spacingRight=4;overflow=hidden;rotatable=0;points=[[0,0.5],[1,0.5]];portConstraint=eastwest;" vertex="1" parent="DHZ5L4yzA53gt9P-dgy5-63">
          <mxGeometry y="198.42105263157896" width="206" height="22" as="geometry" />
        </mxCell>
        <mxCell id="DHZ5L4yzA53gt9P-dgy5-73" value="+DateTime updatedAt" style="text;strokeColor=none;fillColor=none;align=left;verticalAlign=top;spacingLeft=4;spacingRight=4;overflow=hidden;rotatable=0;points=[[0,0.5],[1,0.5]];portConstraint=eastwest;" vertex="1" parent="DHZ5L4yzA53gt9P-dgy5-63">
          <mxGeometry y="220.42105263157896" width="206" height="22" as="geometry" />
        </mxCell>
        <mxCell id="DHZ5L4yzA53gt9P-dgy5-74" style="line;strokeWidth=1;fillColor=none;align=left;verticalAlign=middle;spacingTop=-1;spacingLeft=3;spacingRight=3;rotatable=0;labelPosition=right;points=[];portConstraint=eastwest;strokeColor=inherit;" vertex="1" parent="DHZ5L4yzA53gt9P-dgy5-63">
          <mxGeometry y="242.42105263157896" width="206" height="8" as="geometry" />
        </mxCell>
        <mxCell id="DHZ5L4yzA53gt9P-dgy5-75" value="+createComponent()" style="text;strokeColor=none;fillColor=none;align=left;verticalAlign=top;spacingLeft=4;spacingRight=4;overflow=hidden;rotatable=0;points=[[0,0.5],[1,0.5]];portConstraint=eastwest;" vertex="1" parent="DHZ5L4yzA53gt9P-dgy5-63">
          <mxGeometry y="250.42105263157896" width="206" height="22" as="geometry" />
        </mxCell>
        <mxCell id="DHZ5L4yzA53gt9P-dgy5-76" value="+getComponent()" style="text;strokeColor=none;fillColor=none;align=left;verticalAlign=top;spacingLeft=4;spacingRight=4;overflow=hidden;rotatable=0;points=[[0,0.5],[1,0.5]];portConstraint=eastwest;" vertex="1" parent="DHZ5L4yzA53gt9P-dgy5-63">
          <mxGeometry y="272.42105263157896" width="206" height="22" as="geometry" />
        </mxCell>
        <mxCell id="DHZ5L4yzA53gt9P-dgy5-77" value="+updateComponent()" style="text;strokeColor=none;fillColor=none;align=left;verticalAlign=top;spacingLeft=4;spacingRight=4;overflow=hidden;rotatable=0;points=[[0,0.5],[1,0.5]];portConstraint=eastwest;" vertex="1" parent="DHZ5L4yzA53gt9P-dgy5-63">
          <mxGeometry y="294.42105263157896" width="206" height="22" as="geometry" />
        </mxCell>
        <mxCell id="DHZ5L4yzA53gt9P-dgy5-78" value="+deleteComponent()" style="text;strokeColor=none;fillColor=none;align=left;verticalAlign=top;spacingLeft=4;spacingRight=4;overflow=hidden;rotatable=0;points=[[0,0.5],[1,0.5]];portConstraint=eastwest;" vertex="1" parent="DHZ5L4yzA53gt9P-dgy5-63">
          <mxGeometry y="316.42105263157896" width="206" height="22" as="geometry" />
        </mxCell>
        <mxCell id="DHZ5L4yzA53gt9P-dgy5-79" value="+getAlerts()" style="text;strokeColor=none;fillColor=none;align=left;verticalAlign=top;spacingLeft=4;spacingRight=4;overflow=hidden;rotatable=0;points=[[0,0.5],[1,0.5]];portConstraint=eastwest;" vertex="1" parent="DHZ5L4yzA53gt9P-dgy5-63">
          <mxGeometry y="338.42105263157896" width="206" height="22" as="geometry" />
        </mxCell>
        <mxCell id="DHZ5L4yzA53gt9P-dgy5-80" value="+getMaintenance()" style="text;strokeColor=none;fillColor=none;align=left;verticalAlign=top;spacingLeft=4;spacingRight=4;overflow=hidden;rotatable=0;points=[[0,0.5],[1,0.5]];portConstraint=eastwest;" vertex="1" parent="DHZ5L4yzA53gt9P-dgy5-63">
          <mxGeometry y="360.42105263157896" width="206" height="22" as="geometry" />
        </mxCell>
        <mxCell id="DHZ5L4yzA53gt9P-dgy5-81" value="+getAIRecommendations()" style="text;strokeColor=none;fillColor=none;align=left;verticalAlign=top;spacingLeft=4;spacingRight=4;overflow=hidden;rotatable=0;points=[[0,0.5],[1,0.5]];portConstraint=eastwest;" vertex="1" parent="DHZ5L4yzA53gt9P-dgy5-63">
          <mxGeometry y="382.42105263157896" width="206" height="22" as="geometry" />
        </mxCell>
        <mxCell id="DHZ5L4yzA53gt9P-dgy5-82" value="+updateHealthScore()" style="text;strokeColor=none;fillColor=none;align=left;verticalAlign=top;spacingLeft=4;spacingRight=4;overflow=hidden;rotatable=0;points=[[0,0.5],[1,0.5]];portConstraint=eastwest;" vertex="1" parent="DHZ5L4yzA53gt9P-dgy5-63">
          <mxGeometry y="404.42105263157896" width="206" height="22" as="geometry" />
        </mxCell>
        <mxCell id="DHZ5L4yzA53gt9P-dgy5-83" value="Trip" style="swimlane;fontStyle=1;align=center;verticalAlign=top;childLayout=stackLayout;horizontal=1;startSize=22.17391304347826;horizontalStack=0;resizeParent=1;resizeParentMax=0;resizeLast=0;collapsible=0;marginBottom=0;" vertex="1" parent="1">
          <mxGeometry x="645" y="980" width="207" height="514.1739130434783" as="geometry" />
        </mxCell>
        <mxCell id="DHZ5L4yzA53gt9P-dgy5-84" value="+String id" style="text;strokeColor=none;fillColor=none;align=left;verticalAlign=top;spacingLeft=4;spacingRight=4;overflow=hidden;rotatable=0;points=[[0,0.5],[1,0.5]];portConstraint=eastwest;" vertex="1" parent="DHZ5L4yzA53gt9P-dgy5-83">
          <mxGeometry y="22.17391304347826" width="207" height="22" as="geometry" />
        </mxCell>
        <mxCell id="DHZ5L4yzA53gt9P-dgy5-85" value="+String vehicleId" style="text;strokeColor=none;fillColor=none;align=left;verticalAlign=top;spacingLeft=4;spacingRight=4;overflow=hidden;rotatable=0;points=[[0,0.5],[1,0.5]];portConstraint=eastwest;" vertex="1" parent="DHZ5L4yzA53gt9P-dgy5-83">
          <mxGeometry y="44.173913043478265" width="207" height="22" as="geometry" />
        </mxCell>
        <mxCell id="DHZ5L4yzA53gt9P-dgy5-86" value="+String driverId" style="text;strokeColor=none;fillColor=none;align=left;verticalAlign=top;spacingLeft=4;spacingRight=4;overflow=hidden;rotatable=0;points=[[0,0.5],[1,0.5]];portConstraint=eastwest;" vertex="1" parent="DHZ5L4yzA53gt9P-dgy5-83">
          <mxGeometry y="66.17391304347827" width="207" height="22" as="geometry" />
        </mxCell>
        <mxCell id="DHZ5L4yzA53gt9P-dgy5-87" value="+Json startLocation" style="text;strokeColor=none;fillColor=none;align=left;verticalAlign=top;spacingLeft=4;spacingRight=4;overflow=hidden;rotatable=0;points=[[0,0.5],[1,0.5]];portConstraint=eastwest;" vertex="1" parent="DHZ5L4yzA53gt9P-dgy5-83">
          <mxGeometry y="88.17391304347827" width="207" height="22" as="geometry" />
        </mxCell>
        <mxCell id="DHZ5L4yzA53gt9P-dgy5-88" value="+Json endLocation" style="text;strokeColor=none;fillColor=none;align=left;verticalAlign=top;spacingLeft=4;spacingRight=4;overflow=hidden;rotatable=0;points=[[0,0.5],[1,0.5]];portConstraint=eastwest;" vertex="1" parent="DHZ5L4yzA53gt9P-dgy5-83">
          <mxGeometry y="110.17391304347827" width="207" height="22" as="geometry" />
        </mxCell>
        <mxCell id="DHZ5L4yzA53gt9P-dgy5-89" value="+DateTime startTime" style="text;strokeColor=none;fillColor=none;align=left;verticalAlign=top;spacingLeft=4;spacingRight=4;overflow=hidden;rotatable=0;points=[[0,0.5],[1,0.5]];portConstraint=eastwest;" vertex="1" parent="DHZ5L4yzA53gt9P-dgy5-83">
          <mxGeometry y="132.17391304347825" width="207" height="22" as="geometry" />
        </mxCell>
        <mxCell id="DHZ5L4yzA53gt9P-dgy5-90" value="+DateTime endTime" style="text;strokeColor=none;fillColor=none;align=left;verticalAlign=top;spacingLeft=4;spacingRight=4;overflow=hidden;rotatable=0;points=[[0,0.5],[1,0.5]];portConstraint=eastwest;" vertex="1" parent="DHZ5L4yzA53gt9P-dgy5-83">
          <mxGeometry y="154.17391304347825" width="207" height="22" as="geometry" />
        </mxCell>
        <mxCell id="DHZ5L4yzA53gt9P-dgy5-91" value="+Float distance" style="text;strokeColor=none;fillColor=none;align=left;verticalAlign=top;spacingLeft=4;spacingRight=4;overflow=hidden;rotatable=0;points=[[0,0.5],[1,0.5]];portConstraint=eastwest;" vertex="1" parent="DHZ5L4yzA53gt9P-dgy5-83">
          <mxGeometry y="176.17391304347825" width="207" height="22" as="geometry" />
        </mxCell>
        <mxCell id="DHZ5L4yzA53gt9P-dgy5-92" value="+Float fuelConsumed" style="text;strokeColor=none;fillColor=none;align=left;verticalAlign=top;spacingLeft=4;spacingRight=4;overflow=hidden;rotatable=0;points=[[0,0.5],[1,0.5]];portConstraint=eastwest;" vertex="1" parent="DHZ5L4yzA53gt9P-dgy5-83">
          <mxGeometry y="198.17391304347825" width="207" height="22" as="geometry" />
        </mxCell>
        <mxCell id="DHZ5L4yzA53gt9P-dgy5-93" value="+String status" style="text;strokeColor=none;fillColor=none;align=left;verticalAlign=top;spacingLeft=4;spacingRight=4;overflow=hidden;rotatable=0;points=[[0,0.5],[1,0.5]];portConstraint=eastwest;" vertex="1" parent="DHZ5L4yzA53gt9P-dgy5-83">
          <mxGeometry y="220.17391304347825" width="207" height="22" as="geometry" />
        </mxCell>
        <mxCell id="DHZ5L4yzA53gt9P-dgy5-94" value="+DateTime updatedAt" style="text;strokeColor=none;fillColor=none;align=left;verticalAlign=top;spacingLeft=4;spacingRight=4;overflow=hidden;rotatable=0;points=[[0,0.5],[1,0.5]];portConstraint=eastwest;" vertex="1" parent="DHZ5L4yzA53gt9P-dgy5-83">
          <mxGeometry y="242.17391304347825" width="207" height="22" as="geometry" />
        </mxCell>
        <mxCell id="DHZ5L4yzA53gt9P-dgy5-95" style="line;strokeWidth=1;fillColor=none;align=left;verticalAlign=middle;spacingTop=-1;spacingLeft=3;spacingRight=3;rotatable=0;labelPosition=right;points=[];portConstraint=eastwest;strokeColor=inherit;" vertex="1" parent="DHZ5L4yzA53gt9P-dgy5-83">
          <mxGeometry y="264.17391304347825" width="207" height="8" as="geometry" />
        </mxCell>
        <mxCell id="DHZ5L4yzA53gt9P-dgy5-96" value="+createTrip()" style="text;strokeColor=none;fillColor=none;align=left;verticalAlign=top;spacingLeft=4;spacingRight=4;overflow=hidden;rotatable=0;points=[[0,0.5],[1,0.5]];portConstraint=eastwest;" vertex="1" parent="DHZ5L4yzA53gt9P-dgy5-83">
          <mxGeometry y="272.17391304347825" width="207" height="22" as="geometry" />
        </mxCell>
        <mxCell id="DHZ5L4yzA53gt9P-dgy5-97" value="+getTrip()" style="text;strokeColor=none;fillColor=none;align=left;verticalAlign=top;spacingLeft=4;spacingRight=4;overflow=hidden;rotatable=0;points=[[0,0.5],[1,0.5]];portConstraint=eastwest;" vertex="1" parent="DHZ5L4yzA53gt9P-dgy5-83">
          <mxGeometry y="294.17391304347825" width="207" height="22" as="geometry" />
        </mxCell>
        <mxCell id="DHZ5L4yzA53gt9P-dgy5-98" value="+updateTrip()" style="text;strokeColor=none;fillColor=none;align=left;verticalAlign=top;spacingLeft=4;spacingRight=4;overflow=hidden;rotatable=0;points=[[0,0.5],[1,0.5]];portConstraint=eastwest;" vertex="1" parent="DHZ5L4yzA53gt9P-dgy5-83">
          <mxGeometry y="316.17391304347825" width="207" height="22" as="geometry" />
        </mxCell>
        <mxCell id="DHZ5L4yzA53gt9P-dgy5-99" value="+deleteTrip()" style="text;strokeColor=none;fillColor=none;align=left;verticalAlign=top;spacingLeft=4;spacingRight=4;overflow=hidden;rotatable=0;points=[[0,0.5],[1,0.5]];portConstraint=eastwest;" vertex="1" parent="DHZ5L4yzA53gt9P-dgy5-83">
          <mxGeometry y="338.17391304347825" width="207" height="22" as="geometry" />
        </mxCell>
        <mxCell id="DHZ5L4yzA53gt9P-dgy5-100" value="+startTrip()" style="text;strokeColor=none;fillColor=none;align=left;verticalAlign=top;spacingLeft=4;spacingRight=4;overflow=hidden;rotatable=0;points=[[0,0.5],[1,0.5]];portConstraint=eastwest;" vertex="1" parent="DHZ5L4yzA53gt9P-dgy5-83">
          <mxGeometry y="360.17391304347825" width="207" height="22" as="geometry" />
        </mxCell>
        <mxCell id="DHZ5L4yzA53gt9P-dgy5-101" value="+endTrip()" style="text;strokeColor=none;fillColor=none;align=left;verticalAlign=top;spacingLeft=4;spacingRight=4;overflow=hidden;rotatable=0;points=[[0,0.5],[1,0.5]];portConstraint=eastwest;" vertex="1" parent="DHZ5L4yzA53gt9P-dgy5-83">
          <mxGeometry y="382.17391304347825" width="207" height="22" as="geometry" />
        </mxCell>
        <mxCell id="DHZ5L4yzA53gt9P-dgy5-102" value="+getMetrics()" style="text;strokeColor=none;fillColor=none;align=left;verticalAlign=top;spacingLeft=4;spacingRight=4;overflow=hidden;rotatable=0;points=[[0,0.5],[1,0.5]];portConstraint=eastwest;" vertex="1" parent="DHZ5L4yzA53gt9P-dgy5-83">
          <mxGeometry y="404.17391304347825" width="207" height="22" as="geometry" />
        </mxCell>
        <mxCell id="DHZ5L4yzA53gt9P-dgy5-103" value="+getEvaluation()" style="text;strokeColor=none;fillColor=none;align=left;verticalAlign=top;spacingLeft=4;spacingRight=4;overflow=hidden;rotatable=0;points=[[0,0.5],[1,0.5]];portConstraint=eastwest;" vertex="1" parent="DHZ5L4yzA53gt9P-dgy5-83">
          <mxGeometry y="426.17391304347825" width="207" height="22" as="geometry" />
        </mxCell>
        <mxCell id="DHZ5L4yzA53gt9P-dgy5-104" value="+getAIRecommendations()" style="text;strokeColor=none;fillColor=none;align=left;verticalAlign=top;spacingLeft=4;spacingRight=4;overflow=hidden;rotatable=0;points=[[0,0.5],[1,0.5]];portConstraint=eastwest;" vertex="1" parent="DHZ5L4yzA53gt9P-dgy5-83">
          <mxGeometry y="448.17391304347825" width="207" height="22" as="geometry" />
        </mxCell>
        <mxCell id="DHZ5L4yzA53gt9P-dgy5-105" value="+calculateDistance()" style="text;strokeColor=none;fillColor=none;align=left;verticalAlign=top;spacingLeft=4;spacingRight=4;overflow=hidden;rotatable=0;points=[[0,0.5],[1,0.5]];portConstraint=eastwest;" vertex="1" parent="DHZ5L4yzA53gt9P-dgy5-83">
          <mxGeometry y="470.17391304347825" width="207" height="22" as="geometry" />
        </mxCell>
        <mxCell id="DHZ5L4yzA53gt9P-dgy5-106" value="+calculateFuelConsumed()" style="text;strokeColor=none;fillColor=none;align=left;verticalAlign=top;spacingLeft=4;spacingRight=4;overflow=hidden;rotatable=0;points=[[0,0.5],[1,0.5]];portConstraint=eastwest;" vertex="1" parent="DHZ5L4yzA53gt9P-dgy5-83">
          <mxGeometry y="492.17391304347825" width="207" height="22" as="geometry" />
        </mxCell>
        <mxCell id="DHZ5L4yzA53gt9P-dgy5-107" value="TripMetric" style="swimlane;fontStyle=1;align=center;verticalAlign=top;childLayout=stackLayout;horizontal=1;startSize=22.8;horizontalStack=0;resizeParent=1;resizeParentMax=0;resizeLast=0;collapsible=0;marginBottom=0;" vertex="1" parent="1">
          <mxGeometry x="20" y="1607" width="184" height="352.8" as="geometry" />
        </mxCell>
        <mxCell id="DHZ5L4yzA53gt9P-dgy5-108" value="+String id" style="text;strokeColor=none;fillColor=none;align=left;verticalAlign=top;spacingLeft=4;spacingRight=4;overflow=hidden;rotatable=0;points=[[0,0.5],[1,0.5]];portConstraint=eastwest;" vertex="1" parent="DHZ5L4yzA53gt9P-dgy5-107">
          <mxGeometry y="22.8" width="184" height="23" as="geometry" />
        </mxCell>
        <mxCell id="DHZ5L4yzA53gt9P-dgy5-109" value="+String tripId" style="text;strokeColor=none;fillColor=none;align=left;verticalAlign=top;spacingLeft=4;spacingRight=4;overflow=hidden;rotatable=0;points=[[0,0.5],[1,0.5]];portConstraint=eastwest;" vertex="1" parent="DHZ5L4yzA53gt9P-dgy5-107">
          <mxGeometry y="45.8" width="184" height="23" as="geometry" />
        </mxCell>
        <mxCell id="DHZ5L4yzA53gt9P-dgy5-110" value="+Float speed" style="text;strokeColor=none;fillColor=none;align=left;verticalAlign=top;spacingLeft=4;spacingRight=4;overflow=hidden;rotatable=0;points=[[0,0.5],[1,0.5]];portConstraint=eastwest;" vertex="1" parent="DHZ5L4yzA53gt9P-dgy5-107">
          <mxGeometry y="68.8" width="184" height="23" as="geometry" />
        </mxCell>
        <mxCell id="DHZ5L4yzA53gt9P-dgy5-111" value="+Float acceleration" style="text;strokeColor=none;fillColor=none;align=left;verticalAlign=top;spacingLeft=4;spacingRight=4;overflow=hidden;rotatable=0;points=[[0,0.5],[1,0.5]];portConstraint=eastwest;" vertex="1" parent="DHZ5L4yzA53gt9P-dgy5-107">
          <mxGeometry y="91.8" width="184" height="23" as="geometry" />
        </mxCell>
        <mxCell id="DHZ5L4yzA53gt9P-dgy5-112" value="+Float braking" style="text;strokeColor=none;fillColor=none;align=left;verticalAlign=top;spacingLeft=4;spacingRight=4;overflow=hidden;rotatable=0;points=[[0,0.5],[1,0.5]];portConstraint=eastwest;" vertex="1" parent="DHZ5L4yzA53gt9P-dgy5-107">
          <mxGeometry y="114.8" width="184" height="23" as="geometry" />
        </mxCell>
        <mxCell id="DHZ5L4yzA53gt9P-dgy5-113" value="+Float fuelConsumption" style="text;strokeColor=none;fillColor=none;align=left;verticalAlign=top;spacingLeft=4;spacingRight=4;overflow=hidden;rotatable=0;points=[[0,0.5],[1,0.5]];portConstraint=eastwest;" vertex="1" parent="DHZ5L4yzA53gt9P-dgy5-107">
          <mxGeometry y="137.8" width="184" height="23" as="geometry" />
        </mxCell>
        <mxCell id="DHZ5L4yzA53gt9P-dgy5-114" value="+Float latitude" style="text;strokeColor=none;fillColor=none;align=left;verticalAlign=top;spacingLeft=4;spacingRight=4;overflow=hidden;rotatable=0;points=[[0,0.5],[1,0.5]];portConstraint=eastwest;" vertex="1" parent="DHZ5L4yzA53gt9P-dgy5-107">
          <mxGeometry y="160.8" width="184" height="23" as="geometry" />
        </mxCell>
        <mxCell id="DHZ5L4yzA53gt9P-dgy5-115" value="+Float longitude" style="text;strokeColor=none;fillColor=none;align=left;verticalAlign=top;spacingLeft=4;spacingRight=4;overflow=hidden;rotatable=0;points=[[0,0.5],[1,0.5]];portConstraint=eastwest;" vertex="1" parent="DHZ5L4yzA53gt9P-dgy5-107">
          <mxGeometry y="183.8" width="184" height="23" as="geometry" />
        </mxCell>
        <mxCell id="DHZ5L4yzA53gt9P-dgy5-116" value="+DateTime createdAt" style="text;strokeColor=none;fillColor=none;align=left;verticalAlign=top;spacingLeft=4;spacingRight=4;overflow=hidden;rotatable=0;points=[[0,0.5],[1,0.5]];portConstraint=eastwest;" vertex="1" parent="DHZ5L4yzA53gt9P-dgy5-107">
          <mxGeometry y="206.8" width="184" height="23" as="geometry" />
        </mxCell>
        <mxCell id="DHZ5L4yzA53gt9P-dgy5-117" style="line;strokeWidth=1;fillColor=none;align=left;verticalAlign=middle;spacingTop=-1;spacingLeft=3;spacingRight=3;rotatable=0;labelPosition=right;points=[];portConstraint=eastwest;strokeColor=inherit;" vertex="1" parent="DHZ5L4yzA53gt9P-dgy5-107">
          <mxGeometry y="229.8" width="184" height="8" as="geometry" />
        </mxCell>
        <mxCell id="DHZ5L4yzA53gt9P-dgy5-118" value="+createMetric()" style="text;strokeColor=none;fillColor=none;align=left;verticalAlign=top;spacingLeft=4;spacingRight=4;overflow=hidden;rotatable=0;points=[[0,0.5],[1,0.5]];portConstraint=eastwest;" vertex="1" parent="DHZ5L4yzA53gt9P-dgy5-107">
          <mxGeometry y="237.8" width="184" height="23" as="geometry" />
        </mxCell>
        <mxCell id="DHZ5L4yzA53gt9P-dgy5-119" value="+getMetric()" style="text;strokeColor=none;fillColor=none;align=left;verticalAlign=top;spacingLeft=4;spacingRight=4;overflow=hidden;rotatable=0;points=[[0,0.5],[1,0.5]];portConstraint=eastwest;" vertex="1" parent="DHZ5L4yzA53gt9P-dgy5-107">
          <mxGeometry y="260.8" width="184" height="23" as="geometry" />
        </mxCell>
        <mxCell id="DHZ5L4yzA53gt9P-dgy5-120" value="+updateMetric()" style="text;strokeColor=none;fillColor=none;align=left;verticalAlign=top;spacingLeft=4;spacingRight=4;overflow=hidden;rotatable=0;points=[[0,0.5],[1,0.5]];portConstraint=eastwest;" vertex="1" parent="DHZ5L4yzA53gt9P-dgy5-107">
          <mxGeometry y="283.8" width="184" height="23" as="geometry" />
        </mxCell>
        <mxCell id="DHZ5L4yzA53gt9P-dgy5-121" value="+deleteMetric()" style="text;strokeColor=none;fillColor=none;align=left;verticalAlign=top;spacingLeft=4;spacingRight=4;overflow=hidden;rotatable=0;points=[[0,0.5],[1,0.5]];portConstraint=eastwest;" vertex="1" parent="DHZ5L4yzA53gt9P-dgy5-107">
          <mxGeometry y="306.8" width="184" height="23" as="geometry" />
        </mxCell>
        <mxCell id="DHZ5L4yzA53gt9P-dgy5-122" value="+analyzeMetrics()" style="text;strokeColor=none;fillColor=none;align=left;verticalAlign=top;spacingLeft=4;spacingRight=4;overflow=hidden;rotatable=0;points=[[0,0.5],[1,0.5]];portConstraint=eastwest;" vertex="1" parent="DHZ5L4yzA53gt9P-dgy5-107">
          <mxGeometry y="329.8" width="184" height="23" as="geometry" />
        </mxCell>
        <mxCell id="DHZ5L4yzA53gt9P-dgy5-123" value="DriverEvaluation" style="swimlane;fontStyle=1;align=center;verticalAlign=top;childLayout=stackLayout;horizontal=1;startSize=22.5;horizontalStack=0;resizeParent=1;resizeParentMax=0;resizeLast=0;collapsible=0;marginBottom=0;" vertex="1" parent="1">
          <mxGeometry x="254" y="1576" width="232" height="421.5" as="geometry" />
        </mxCell>
        <mxCell id="DHZ5L4yzA53gt9P-dgy5-124" value="+String id" style="text;strokeColor=none;fillColor=none;align=left;verticalAlign=top;spacingLeft=4;spacingRight=4;overflow=hidden;rotatable=0;points=[[0,0.5],[1,0.5]];portConstraint=eastwest;" vertex="1" parent="DHZ5L4yzA53gt9P-dgy5-123">
          <mxGeometry y="22.5" width="232" height="23" as="geometry" />
        </mxCell>
        <mxCell id="DHZ5L4yzA53gt9P-dgy5-125" value="+String driverId" style="text;strokeColor=none;fillColor=none;align=left;verticalAlign=top;spacingLeft=4;spacingRight=4;overflow=hidden;rotatable=0;points=[[0,0.5],[1,0.5]];portConstraint=eastwest;" vertex="1" parent="DHZ5L4yzA53gt9P-dgy5-123">
          <mxGeometry y="45.5" width="232" height="23" as="geometry" />
        </mxCell>
        <mxCell id="DHZ5L4yzA53gt9P-dgy5-126" value="+String tripId" style="text;strokeColor=none;fillColor=none;align=left;verticalAlign=top;spacingLeft=4;spacingRight=4;overflow=hidden;rotatable=0;points=[[0,0.5],[1,0.5]];portConstraint=eastwest;" vertex="1" parent="DHZ5L4yzA53gt9P-dgy5-123">
          <mxGeometry y="68.5" width="232" height="23" as="geometry" />
        </mxCell>
        <mxCell id="DHZ5L4yzA53gt9P-dgy5-127" value="+Float safetyScore" style="text;strokeColor=none;fillColor=none;align=left;verticalAlign=top;spacingLeft=4;spacingRight=4;overflow=hidden;rotatable=0;points=[[0,0.5],[1,0.5]];portConstraint=eastwest;" vertex="1" parent="DHZ5L4yzA53gt9P-dgy5-123">
          <mxGeometry y="91.5" width="232" height="23" as="geometry" />
        </mxCell>
        <mxCell id="DHZ5L4yzA53gt9P-dgy5-128" value="+Float fuelEfficiencyScore" style="text;strokeColor=none;fillColor=none;align=left;verticalAlign=top;spacingLeft=4;spacingRight=4;overflow=hidden;rotatable=0;points=[[0,0.5],[1,0.5]];portConstraint=eastwest;" vertex="1" parent="DHZ5L4yzA53gt9P-dgy5-123">
          <mxGeometry y="114.5" width="232" height="23" as="geometry" />
        </mxCell>
        <mxCell id="DHZ5L4yzA53gt9P-dgy5-129" value="+Int speedingInstances" style="text;strokeColor=none;fillColor=none;align=left;verticalAlign=top;spacingLeft=4;spacingRight=4;overflow=hidden;rotatable=0;points=[[0,0.5],[1,0.5]];portConstraint=eastwest;" vertex="1" parent="DHZ5L4yzA53gt9P-dgy5-123">
          <mxGeometry y="137.5" width="232" height="23" as="geometry" />
        </mxCell>
        <mxCell id="DHZ5L4yzA53gt9P-dgy5-130" value="+Int hardBrakingCount" style="text;strokeColor=none;fillColor=none;align=left;verticalAlign=top;spacingLeft=4;spacingRight=4;overflow=hidden;rotatable=0;points=[[0,0.5],[1,0.5]];portConstraint=eastwest;" vertex="1" parent="DHZ5L4yzA53gt9P-dgy5-123">
          <mxGeometry y="160.5" width="232" height="23" as="geometry" />
        </mxCell>
        <mxCell id="DHZ5L4yzA53gt9P-dgy5-131" value="+Int hardAccelerationCount" style="text;strokeColor=none;fillColor=none;align=left;verticalAlign=top;spacingLeft=4;spacingRight=4;overflow=hidden;rotatable=0;points=[[0,0.5],[1,0.5]];portConstraint=eastwest;" vertex="1" parent="DHZ5L4yzA53gt9P-dgy5-123">
          <mxGeometry y="183.5" width="232" height="23" as="geometry" />
        </mxCell>
        <mxCell id="DHZ5L4yzA53gt9P-dgy5-132" value="+Float distractionScore" style="text;strokeColor=none;fillColor=none;align=left;verticalAlign=top;spacingLeft=4;spacingRight=4;overflow=hidden;rotatable=0;points=[[0,0.5],[1,0.5]];portConstraint=eastwest;" vertex="1" parent="DHZ5L4yzA53gt9P-dgy5-123">
          <mxGeometry y="206.5" width="232" height="23" as="geometry" />
        </mxCell>
        <mxCell id="DHZ5L4yzA53gt9P-dgy5-133" value="+Float overallScore" style="text;strokeColor=none;fillColor=none;align=left;verticalAlign=top;spacingLeft=4;spacingRight=4;overflow=hidden;rotatable=0;points=[[0,0.5],[1,0.5]];portConstraint=eastwest;" vertex="1" parent="DHZ5L4yzA53gt9P-dgy5-123">
          <mxGeometry y="229.5" width="232" height="23" as="geometry" />
        </mxCell>
        <mxCell id="DHZ5L4yzA53gt9P-dgy5-134" value="+Json recommendations" style="text;strokeColor=none;fillColor=none;align=left;verticalAlign=top;spacingLeft=4;spacingRight=4;overflow=hidden;rotatable=0;points=[[0,0.5],[1,0.5]];portConstraint=eastwest;" vertex="1" parent="DHZ5L4yzA53gt9P-dgy5-123">
          <mxGeometry y="252.5" width="232" height="23" as="geometry" />
        </mxCell>
        <mxCell id="DHZ5L4yzA53gt9P-dgy5-135" value="+DateTime createdAt" style="text;strokeColor=none;fillColor=none;align=left;verticalAlign=top;spacingLeft=4;spacingRight=4;overflow=hidden;rotatable=0;points=[[0,0.5],[1,0.5]];portConstraint=eastwest;" vertex="1" parent="DHZ5L4yzA53gt9P-dgy5-123">
          <mxGeometry y="275.5" width="232" height="23" as="geometry" />
        </mxCell>
        <mxCell id="DHZ5L4yzA53gt9P-dgy5-136" style="line;strokeWidth=1;fillColor=none;align=left;verticalAlign=middle;spacingTop=-1;spacingLeft=3;spacingRight=3;rotatable=0;labelPosition=right;points=[];portConstraint=eastwest;strokeColor=inherit;" vertex="1" parent="DHZ5L4yzA53gt9P-dgy5-123">
          <mxGeometry y="298.5" width="232" height="8" as="geometry" />
        </mxCell>
        <mxCell id="DHZ5L4yzA53gt9P-dgy5-137" value="+createEvaluation()" style="text;strokeColor=none;fillColor=none;align=left;verticalAlign=top;spacingLeft=4;spacingRight=4;overflow=hidden;rotatable=0;points=[[0,0.5],[1,0.5]];portConstraint=eastwest;" vertex="1" parent="DHZ5L4yzA53gt9P-dgy5-123">
          <mxGeometry y="306.5" width="232" height="23" as="geometry" />
        </mxCell>
        <mxCell id="DHZ5L4yzA53gt9P-dgy5-138" value="+getEvaluation()" style="text;strokeColor=none;fillColor=none;align=left;verticalAlign=top;spacingLeft=4;spacingRight=4;overflow=hidden;rotatable=0;points=[[0,0.5],[1,0.5]];portConstraint=eastwest;" vertex="1" parent="DHZ5L4yzA53gt9P-dgy5-123">
          <mxGeometry y="329.5" width="232" height="23" as="geometry" />
        </mxCell>
        <mxCell id="DHZ5L4yzA53gt9P-dgy5-139" value="+updateEvaluation()" style="text;strokeColor=none;fillColor=none;align=left;verticalAlign=top;spacingLeft=4;spacingRight=4;overflow=hidden;rotatable=0;points=[[0,0.5],[1,0.5]];portConstraint=eastwest;" vertex="1" parent="DHZ5L4yzA53gt9P-dgy5-123">
          <mxGeometry y="352.5" width="232" height="23" as="geometry" />
        </mxCell>
        <mxCell id="DHZ5L4yzA53gt9P-dgy5-140" value="+deleteEvaluation()" style="text;strokeColor=none;fillColor=none;align=left;verticalAlign=top;spacingLeft=4;spacingRight=4;overflow=hidden;rotatable=0;points=[[0,0.5],[1,0.5]];portConstraint=eastwest;" vertex="1" parent="DHZ5L4yzA53gt9P-dgy5-123">
          <mxGeometry y="375.5" width="232" height="23" as="geometry" />
        </mxCell>
        <mxCell id="DHZ5L4yzA53gt9P-dgy5-141" value="+generateRecommendations()" style="text;strokeColor=none;fillColor=none;align=left;verticalAlign=top;spacingLeft=4;spacingRight=4;overflow=hidden;rotatable=0;points=[[0,0.5],[1,0.5]];portConstraint=eastwest;" vertex="1" parent="DHZ5L4yzA53gt9P-dgy5-123">
          <mxGeometry y="398.5" width="232" height="23" as="geometry" />
        </mxCell>
        <mxCell id="DHZ5L4yzA53gt9P-dgy5-142" value="Alert" style="swimlane;fontStyle=1;align=center;verticalAlign=top;childLayout=stackLayout;horizontal=1;startSize=22.8;horizontalStack=0;resizeParent=1;resizeParentMax=0;resizeLast=0;collapsible=0;marginBottom=0;" vertex="1" parent="1">
          <mxGeometry x="563" y="3152" width="195" height="352.8" as="geometry" />
        </mxCell>
        <mxCell id="DHZ5L4yzA53gt9P-dgy5-143" value="+String id" style="text;strokeColor=none;fillColor=none;align=left;verticalAlign=top;spacingLeft=4;spacingRight=4;overflow=hidden;rotatable=0;points=[[0,0.5],[1,0.5]];portConstraint=eastwest;" vertex="1" parent="DHZ5L4yzA53gt9P-dgy5-142">
          <mxGeometry y="22.8" width="195" height="23" as="geometry" />
        </mxCell>
        <mxCell id="DHZ5L4yzA53gt9P-dgy5-144" value="+String type" style="text;strokeColor=none;fillColor=none;align=left;verticalAlign=top;spacingLeft=4;spacingRight=4;overflow=hidden;rotatable=0;points=[[0,0.5],[1,0.5]];portConstraint=eastwest;" vertex="1" parent="DHZ5L4yzA53gt9P-dgy5-142">
          <mxGeometry y="45.8" width="195" height="23" as="geometry" />
        </mxCell>
        <mxCell id="DHZ5L4yzA53gt9P-dgy5-145" value="+String vehicleId" style="text;strokeColor=none;fillColor=none;align=left;verticalAlign=top;spacingLeft=4;spacingRight=4;overflow=hidden;rotatable=0;points=[[0,0.5],[1,0.5]];portConstraint=eastwest;" vertex="1" parent="DHZ5L4yzA53gt9P-dgy5-142">
          <mxGeometry y="68.8" width="195" height="23" as="geometry" />
        </mxCell>
        <mxCell id="DHZ5L4yzA53gt9P-dgy5-146" value="+String componentId" style="text;strokeColor=none;fillColor=none;align=left;verticalAlign=top;spacingLeft=4;spacingRight=4;overflow=hidden;rotatable=0;points=[[0,0.5],[1,0.5]];portConstraint=eastwest;" vertex="1" parent="DHZ5L4yzA53gt9P-dgy5-142">
          <mxGeometry y="91.8" width="195" height="23" as="geometry" />
        </mxCell>
        <mxCell id="DHZ5L4yzA53gt9P-dgy5-147" value="+String message" style="text;strokeColor=none;fillColor=none;align=left;verticalAlign=top;spacingLeft=4;spacingRight=4;overflow=hidden;rotatable=0;points=[[0,0.5],[1,0.5]];portConstraint=eastwest;" vertex="1" parent="DHZ5L4yzA53gt9P-dgy5-142">
          <mxGeometry y="114.8" width="195" height="23" as="geometry" />
        </mxCell>
        <mxCell id="DHZ5L4yzA53gt9P-dgy5-148" value="+Boolean actionRequired" style="text;strokeColor=none;fillColor=none;align=left;verticalAlign=top;spacingLeft=4;spacingRight=4;overflow=hidden;rotatable=0;points=[[0,0.5],[1,0.5]];portConstraint=eastwest;" vertex="1" parent="DHZ5L4yzA53gt9P-dgy5-142">
          <mxGeometry y="137.8" width="195" height="23" as="geometry" />
        </mxCell>
        <mxCell id="DHZ5L4yzA53gt9P-dgy5-149" value="+DateTime createdAt" style="text;strokeColor=none;fillColor=none;align=left;verticalAlign=top;spacingLeft=4;spacingRight=4;overflow=hidden;rotatable=0;points=[[0,0.5],[1,0.5]];portConstraint=eastwest;" vertex="1" parent="DHZ5L4yzA53gt9P-dgy5-142">
          <mxGeometry y="160.8" width="195" height="23" as="geometry" />
        </mxCell>
        <mxCell id="DHZ5L4yzA53gt9P-dgy5-150" value="+DateTime resolvedAt" style="text;strokeColor=none;fillColor=none;align=left;verticalAlign=top;spacingLeft=4;spacingRight=4;overflow=hidden;rotatable=0;points=[[0,0.5],[1,0.5]];portConstraint=eastwest;" vertex="1" parent="DHZ5L4yzA53gt9P-dgy5-142">
          <mxGeometry y="183.8" width="195" height="23" as="geometry" />
        </mxCell>
        <mxCell id="DHZ5L4yzA53gt9P-dgy5-151" style="line;strokeWidth=1;fillColor=none;align=left;verticalAlign=middle;spacingTop=-1;spacingLeft=3;spacingRight=3;rotatable=0;labelPosition=right;points=[];portConstraint=eastwest;strokeColor=inherit;" vertex="1" parent="DHZ5L4yzA53gt9P-dgy5-142">
          <mxGeometry y="206.8" width="195" height="8" as="geometry" />
        </mxCell>
        <mxCell id="DHZ5L4yzA53gt9P-dgy5-152" value="+createAlert()" style="text;strokeColor=none;fillColor=none;align=left;verticalAlign=top;spacingLeft=4;spacingRight=4;overflow=hidden;rotatable=0;points=[[0,0.5],[1,0.5]];portConstraint=eastwest;" vertex="1" parent="DHZ5L4yzA53gt9P-dgy5-142">
          <mxGeometry y="214.8" width="195" height="23" as="geometry" />
        </mxCell>
        <mxCell id="DHZ5L4yzA53gt9P-dgy5-153" value="+getAlert()" style="text;strokeColor=none;fillColor=none;align=left;verticalAlign=top;spacingLeft=4;spacingRight=4;overflow=hidden;rotatable=0;points=[[0,0.5],[1,0.5]];portConstraint=eastwest;" vertex="1" parent="DHZ5L4yzA53gt9P-dgy5-142">
          <mxGeometry y="237.8" width="195" height="23" as="geometry" />
        </mxCell>
        <mxCell id="DHZ5L4yzA53gt9P-dgy5-154" value="+updateAlert()" style="text;strokeColor=none;fillColor=none;align=left;verticalAlign=top;spacingLeft=4;spacingRight=4;overflow=hidden;rotatable=0;points=[[0,0.5],[1,0.5]];portConstraint=eastwest;" vertex="1" parent="DHZ5L4yzA53gt9P-dgy5-142">
          <mxGeometry y="260.8" width="195" height="23" as="geometry" />
        </mxCell>
        <mxCell id="DHZ5L4yzA53gt9P-dgy5-155" value="+deleteAlert()" style="text;strokeColor=none;fillColor=none;align=left;verticalAlign=top;spacingLeft=4;spacingRight=4;overflow=hidden;rotatable=0;points=[[0,0.5],[1,0.5]];portConstraint=eastwest;" vertex="1" parent="DHZ5L4yzA53gt9P-dgy5-142">
          <mxGeometry y="283.8" width="195" height="23" as="geometry" />
        </mxCell>
        <mxCell id="DHZ5L4yzA53gt9P-dgy5-156" value="+resolveAlert()" style="text;strokeColor=none;fillColor=none;align=left;verticalAlign=top;spacingLeft=4;spacingRight=4;overflow=hidden;rotatable=0;points=[[0,0.5],[1,0.5]];portConstraint=eastwest;" vertex="1" parent="DHZ5L4yzA53gt9P-dgy5-142">
          <mxGeometry y="306.8" width="195" height="23" as="geometry" />
        </mxCell>
        <mxCell id="DHZ5L4yzA53gt9P-dgy5-157" value="+sendNotification()" style="text;strokeColor=none;fillColor=none;align=left;verticalAlign=top;spacingLeft=4;spacingRight=4;overflow=hidden;rotatable=0;points=[[0,0.5],[1,0.5]];portConstraint=eastwest;" vertex="1" parent="DHZ5L4yzA53gt9P-dgy5-142">
          <mxGeometry y="329.8" width="195" height="23" as="geometry" />
        </mxCell>
        <mxCell id="DHZ5L4yzA53gt9P-dgy5-158" value="Maintenance" style="swimlane;fontStyle=1;align=center;verticalAlign=top;childLayout=stackLayout;horizontal=1;startSize=22.928571428571427;horizontalStack=0;resizeParent=1;resizeParentMax=0;resizeLast=0;collapsible=0;marginBottom=0;" vertex="1" parent="1">
          <mxGeometry x="1007" y="3163" width="197" height="329.92857142857144" as="geometry" />
        </mxCell>
        <mxCell id="DHZ5L4yzA53gt9P-dgy5-159" value="+String id" style="text;strokeColor=none;fillColor=none;align=left;verticalAlign=top;spacingLeft=4;spacingRight=4;overflow=hidden;rotatable=0;points=[[0,0.5],[1,0.5]];portConstraint=eastwest;" vertex="1" parent="DHZ5L4yzA53gt9P-dgy5-158">
          <mxGeometry y="22.928571428571427" width="197" height="23" as="geometry" />
        </mxCell>
        <mxCell id="DHZ5L4yzA53gt9P-dgy5-160" value="+String vehicleId" style="text;strokeColor=none;fillColor=none;align=left;verticalAlign=top;spacingLeft=4;spacingRight=4;overflow=hidden;rotatable=0;points=[[0,0.5],[1,0.5]];portConstraint=eastwest;" vertex="1" parent="DHZ5L4yzA53gt9P-dgy5-158">
          <mxGeometry y="45.92857142857143" width="197" height="23" as="geometry" />
        </mxCell>
        <mxCell id="DHZ5L4yzA53gt9P-dgy5-161" value="+String componentId" style="text;strokeColor=none;fillColor=none;align=left;verticalAlign=top;spacingLeft=4;spacingRight=4;overflow=hidden;rotatable=0;points=[[0,0.5],[1,0.5]];portConstraint=eastwest;" vertex="1" parent="DHZ5L4yzA53gt9P-dgy5-158">
          <mxGeometry y="68.92857142857143" width="197" height="23" as="geometry" />
        </mxCell>
        <mxCell id="DHZ5L4yzA53gt9P-dgy5-162" value="+String maintenanceType" style="text;strokeColor=none;fillColor=none;align=left;verticalAlign=top;spacingLeft=4;spacingRight=4;overflow=hidden;rotatable=0;points=[[0,0.5],[1,0.5]];portConstraint=eastwest;" vertex="1" parent="DHZ5L4yzA53gt9P-dgy5-158">
          <mxGeometry y="91.92857142857143" width="197" height="23" as="geometry" />
        </mxCell>
        <mxCell id="DHZ5L4yzA53gt9P-dgy5-163" value="+String description" style="text;strokeColor=none;fillColor=none;align=left;verticalAlign=top;spacingLeft=4;spacingRight=4;overflow=hidden;rotatable=0;points=[[0,0.5],[1,0.5]];portConstraint=eastwest;" vertex="1" parent="DHZ5L4yzA53gt9P-dgy5-158">
          <mxGeometry y="114.92857142857143" width="197" height="23" as="geometry" />
        </mxCell>
        <mxCell id="DHZ5L4yzA53gt9P-dgy5-164" value="+Json metadata" style="text;strokeColor=none;fillColor=none;align=left;verticalAlign=top;spacingLeft=4;spacingRight=4;overflow=hidden;rotatable=0;points=[[0,0.5],[1,0.5]];portConstraint=eastwest;" vertex="1" parent="DHZ5L4yzA53gt9P-dgy5-158">
          <mxGeometry y="137.92857142857144" width="197" height="23" as="geometry" />
        </mxCell>
        <mxCell id="DHZ5L4yzA53gt9P-dgy5-165" value="+DateTime createdAt" style="text;strokeColor=none;fillColor=none;align=left;verticalAlign=top;spacingLeft=4;spacingRight=4;overflow=hidden;rotatable=0;points=[[0,0.5],[1,0.5]];portConstraint=eastwest;" vertex="1" parent="DHZ5L4yzA53gt9P-dgy5-158">
          <mxGeometry y="160.92857142857144" width="197" height="23" as="geometry" />
        </mxCell>
        <mxCell id="DHZ5L4yzA53gt9P-dgy5-166" value="+DateTime updatedAt" style="text;strokeColor=none;fillColor=none;align=left;verticalAlign=top;spacingLeft=4;spacingRight=4;overflow=hidden;rotatable=0;points=[[0,0.5],[1,0.5]];portConstraint=eastwest;" vertex="1" parent="DHZ5L4yzA53gt9P-dgy5-158">
          <mxGeometry y="183.92857142857144" width="197" height="23" as="geometry" />
        </mxCell>
        <mxCell id="DHZ5L4yzA53gt9P-dgy5-167" style="line;strokeWidth=1;fillColor=none;align=left;verticalAlign=middle;spacingTop=-1;spacingLeft=3;spacingRight=3;rotatable=0;labelPosition=right;points=[];portConstraint=eastwest;strokeColor=inherit;" vertex="1" parent="DHZ5L4yzA53gt9P-dgy5-158">
          <mxGeometry y="206.92857142857144" width="197" height="8" as="geometry" />
        </mxCell>
        <mxCell id="DHZ5L4yzA53gt9P-dgy5-168" value="+createMaintenance()" style="text;strokeColor=none;fillColor=none;align=left;verticalAlign=top;spacingLeft=4;spacingRight=4;overflow=hidden;rotatable=0;points=[[0,0.5],[1,0.5]];portConstraint=eastwest;" vertex="1" parent="DHZ5L4yzA53gt9P-dgy5-158">
          <mxGeometry y="214.92857142857144" width="197" height="23" as="geometry" />
        </mxCell>
        <mxCell id="DHZ5L4yzA53gt9P-dgy5-169" value="+getMaintenance()" style="text;strokeColor=none;fillColor=none;align=left;verticalAlign=top;spacingLeft=4;spacingRight=4;overflow=hidden;rotatable=0;points=[[0,0.5],[1,0.5]];portConstraint=eastwest;" vertex="1" parent="DHZ5L4yzA53gt9P-dgy5-158">
          <mxGeometry y="237.92857142857144" width="197" height="23" as="geometry" />
        </mxCell>
        <mxCell id="DHZ5L4yzA53gt9P-dgy5-170" value="+updateMaintenance()" style="text;strokeColor=none;fillColor=none;align=left;verticalAlign=top;spacingLeft=4;spacingRight=4;overflow=hidden;rotatable=0;points=[[0,0.5],[1,0.5]];portConstraint=eastwest;" vertex="1" parent="DHZ5L4yzA53gt9P-dgy5-158">
          <mxGeometry y="260.92857142857144" width="197" height="23" as="geometry" />
        </mxCell>
        <mxCell id="DHZ5L4yzA53gt9P-dgy5-171" value="+deleteMaintenance()" style="text;strokeColor=none;fillColor=none;align=left;verticalAlign=top;spacingLeft=4;spacingRight=4;overflow=hidden;rotatable=0;points=[[0,0.5],[1,0.5]];portConstraint=eastwest;" vertex="1" parent="DHZ5L4yzA53gt9P-dgy5-158">
          <mxGeometry y="283.92857142857144" width="197" height="23" as="geometry" />
        </mxCell>
        <mxCell id="DHZ5L4yzA53gt9P-dgy5-172" value="+scheduleMaintenance()" style="text;strokeColor=none;fillColor=none;align=left;verticalAlign=top;spacingLeft=4;spacingRight=4;overflow=hidden;rotatable=0;points=[[0,0.5],[1,0.5]];portConstraint=eastwest;" vertex="1" parent="DHZ5L4yzA53gt9P-dgy5-158">
          <mxGeometry y="306.92857142857144" width="197" height="23" as="geometry" />
        </mxCell>
        <mxCell id="DHZ5L4yzA53gt9P-dgy5-173" value="AIRecommendation" style="swimlane;fontStyle=1;align=center;verticalAlign=top;childLayout=stackLayout;horizontal=1;startSize=22.42105263157895;horizontalStack=0;resizeParent=1;resizeParentMax=0;resizeLast=0;collapsible=0;marginBottom=0;" vertex="1" parent="1">
          <mxGeometry x="837" y="1565" width="225" height="426.42105263157896" as="geometry" />
        </mxCell>
        <mxCell id="DHZ5L4yzA53gt9P-dgy5-174" value="+String id" style="text;strokeColor=none;fillColor=none;align=left;verticalAlign=top;spacingLeft=4;spacingRight=4;overflow=hidden;rotatable=0;points=[[0,0.5],[1,0.5]];portConstraint=eastwest;" vertex="1" parent="DHZ5L4yzA53gt9P-dgy5-173">
          <mxGeometry y="22.42105263157895" width="225" height="22" as="geometry" />
        </mxCell>
        <mxCell id="DHZ5L4yzA53gt9P-dgy5-175" value="+String targetType" style="text;strokeColor=none;fillColor=none;align=left;verticalAlign=top;spacingLeft=4;spacingRight=4;overflow=hidden;rotatable=0;points=[[0,0.5],[1,0.5]];portConstraint=eastwest;" vertex="1" parent="DHZ5L4yzA53gt9P-dgy5-173">
          <mxGeometry y="44.421052631578945" width="225" height="22" as="geometry" />
        </mxCell>
        <mxCell id="DHZ5L4yzA53gt9P-dgy5-176" value="+String targetId" style="text;strokeColor=none;fillColor=none;align=left;verticalAlign=top;spacingLeft=4;spacingRight=4;overflow=hidden;rotatable=0;points=[[0,0.5],[1,0.5]];portConstraint=eastwest;" vertex="1" parent="DHZ5L4yzA53gt9P-dgy5-173">
          <mxGeometry y="66.42105263157895" width="225" height="22" as="geometry" />
        </mxCell>
        <mxCell id="DHZ5L4yzA53gt9P-dgy5-177" value="+String recommendationType" style="text;strokeColor=none;fillColor=none;align=left;verticalAlign=top;spacingLeft=4;spacingRight=4;overflow=hidden;rotatable=0;points=[[0,0.5],[1,0.5]];portConstraint=eastwest;" vertex="1" parent="DHZ5L4yzA53gt9P-dgy5-173">
          <mxGeometry y="88.42105263157895" width="225" height="22" as="geometry" />
        </mxCell>
        <mxCell id="DHZ5L4yzA53gt9P-dgy5-178" value="+String priority" style="text;strokeColor=none;fillColor=none;align=left;verticalAlign=top;spacingLeft=4;spacingRight=4;overflow=hidden;rotatable=0;points=[[0,0.5],[1,0.5]];portConstraint=eastwest;" vertex="1" parent="DHZ5L4yzA53gt9P-dgy5-173">
          <mxGeometry y="110.42105263157895" width="225" height="22" as="geometry" />
        </mxCell>
        <mxCell id="DHZ5L4yzA53gt9P-dgy5-179" value="+String description" style="text;strokeColor=none;fillColor=none;align=left;verticalAlign=top;spacingLeft=4;spacingRight=4;overflow=hidden;rotatable=0;points=[[0,0.5],[1,0.5]];portConstraint=eastwest;" vertex="1" parent="DHZ5L4yzA53gt9P-dgy5-173">
          <mxGeometry y="132.42105263157896" width="225" height="22" as="geometry" />
        </mxCell>
        <mxCell id="DHZ5L4yzA53gt9P-dgy5-180" value="+String suggestedAction" style="text;strokeColor=none;fillColor=none;align=left;verticalAlign=top;spacingLeft=4;spacingRight=4;overflow=hidden;rotatable=0;points=[[0,0.5],[1,0.5]];portConstraint=eastwest;" vertex="1" parent="DHZ5L4yzA53gt9P-dgy5-173">
          <mxGeometry y="154.42105263157896" width="225" height="22" as="geometry" />
        </mxCell>
        <mxCell id="DHZ5L4yzA53gt9P-dgy5-181" value="+Json metadata" style="text;strokeColor=none;fillColor=none;align=left;verticalAlign=top;spacingLeft=4;spacingRight=4;overflow=hidden;rotatable=0;points=[[0,0.5],[1,0.5]];portConstraint=eastwest;" vertex="1" parent="DHZ5L4yzA53gt9P-dgy5-173">
          <mxGeometry y="176.42105263157896" width="225" height="22" as="geometry" />
        </mxCell>
        <mxCell id="DHZ5L4yzA53gt9P-dgy5-182" value="+DateTime createdAt" style="text;strokeColor=none;fillColor=none;align=left;verticalAlign=top;spacingLeft=4;spacingRight=4;overflow=hidden;rotatable=0;points=[[0,0.5],[1,0.5]];portConstraint=eastwest;" vertex="1" parent="DHZ5L4yzA53gt9P-dgy5-173">
          <mxGeometry y="198.42105263157896" width="225" height="22" as="geometry" />
        </mxCell>
        <mxCell id="DHZ5L4yzA53gt9P-dgy5-183" value="+String driverId" style="text;strokeColor=none;fillColor=none;align=left;verticalAlign=top;spacingLeft=4;spacingRight=4;overflow=hidden;rotatable=0;points=[[0,0.5],[1,0.5]];portConstraint=eastwest;" vertex="1" parent="DHZ5L4yzA53gt9P-dgy5-173">
          <mxGeometry y="220.42105263157896" width="225" height="22" as="geometry" />
        </mxCell>
        <mxCell id="DHZ5L4yzA53gt9P-dgy5-184" value="+String vehicleId" style="text;strokeColor=none;fillColor=none;align=left;verticalAlign=top;spacingLeft=4;spacingRight=4;overflow=hidden;rotatable=0;points=[[0,0.5],[1,0.5]];portConstraint=eastwest;" vertex="1" parent="DHZ5L4yzA53gt9P-dgy5-173">
          <mxGeometry y="242.42105263157896" width="225" height="22" as="geometry" />
        </mxCell>
        <mxCell id="DHZ5L4yzA53gt9P-dgy5-185" value="+String componentId" style="text;strokeColor=none;fillColor=none;align=left;verticalAlign=top;spacingLeft=4;spacingRight=4;overflow=hidden;rotatable=0;points=[[0,0.5],[1,0.5]];portConstraint=eastwest;" vertex="1" parent="DHZ5L4yzA53gt9P-dgy5-173">
          <mxGeometry y="264.42105263157896" width="225" height="22" as="geometry" />
        </mxCell>
        <mxCell id="DHZ5L4yzA53gt9P-dgy5-186" value="+String tripId" style="text;strokeColor=none;fillColor=none;align=left;verticalAlign=top;spacingLeft=4;spacingRight=4;overflow=hidden;rotatable=0;points=[[0,0.5],[1,0.5]];portConstraint=eastwest;" vertex="1" parent="DHZ5L4yzA53gt9P-dgy5-173">
          <mxGeometry y="286.42105263157896" width="225" height="22" as="geometry" />
        </mxCell>
        <mxCell id="DHZ5L4yzA53gt9P-dgy5-187" style="line;strokeWidth=1;fillColor=none;align=left;verticalAlign=middle;spacingTop=-1;spacingLeft=3;spacingRight=3;rotatable=0;labelPosition=right;points=[];portConstraint=eastwest;strokeColor=inherit;" vertex="1" parent="DHZ5L4yzA53gt9P-dgy5-173">
          <mxGeometry y="308.42105263157896" width="225" height="8" as="geometry" />
        </mxCell>
        <mxCell id="DHZ5L4yzA53gt9P-dgy5-188" value="+createRecommendation()" style="text;strokeColor=none;fillColor=none;align=left;verticalAlign=top;spacingLeft=4;spacingRight=4;overflow=hidden;rotatable=0;points=[[0,0.5],[1,0.5]];portConstraint=eastwest;" vertex="1" parent="DHZ5L4yzA53gt9P-dgy5-173">
          <mxGeometry y="316.42105263157896" width="225" height="22" as="geometry" />
        </mxCell>
        <mxCell id="DHZ5L4yzA53gt9P-dgy5-189" value="+getRecommendation()" style="text;strokeColor=none;fillColor=none;align=left;verticalAlign=top;spacingLeft=4;spacingRight=4;overflow=hidden;rotatable=0;points=[[0,0.5],[1,0.5]];portConstraint=eastwest;" vertex="1" parent="DHZ5L4yzA53gt9P-dgy5-173">
          <mxGeometry y="338.42105263157896" width="225" height="22" as="geometry" />
        </mxCell>
        <mxCell id="DHZ5L4yzA53gt9P-dgy5-190" value="+updateRecommendation()" style="text;strokeColor=none;fillColor=none;align=left;verticalAlign=top;spacingLeft=4;spacingRight=4;overflow=hidden;rotatable=0;points=[[0,0.5],[1,0.5]];portConstraint=eastwest;" vertex="1" parent="DHZ5L4yzA53gt9P-dgy5-173">
          <mxGeometry y="360.42105263157896" width="225" height="22" as="geometry" />
        </mxCell>
        <mxCell id="DHZ5L4yzA53gt9P-dgy5-191" value="+deleteRecommendation()" style="text;strokeColor=none;fillColor=none;align=left;verticalAlign=top;spacingLeft=4;spacingRight=4;overflow=hidden;rotatable=0;points=[[0,0.5],[1,0.5]];portConstraint=eastwest;" vertex="1" parent="DHZ5L4yzA53gt9P-dgy5-173">
          <mxGeometry y="382.42105263157896" width="225" height="22" as="geometry" />
        </mxCell>
        <mxCell id="DHZ5L4yzA53gt9P-dgy5-192" value="+applyRecommendation()" style="text;strokeColor=none;fillColor=none;align=left;verticalAlign=top;spacingLeft=4;spacingRight=4;overflow=hidden;rotatable=0;points=[[0,0.5],[1,0.5]];portConstraint=eastwest;" vertex="1" parent="DHZ5L4yzA53gt9P-dgy5-173">
          <mxGeometry y="404.42105263157896" width="225" height="22" as="geometry" />
        </mxCell>
        <mxCell id="DHZ5L4yzA53gt9P-dgy5-193" value="DriverVehicleAssignment" style="swimlane;fontStyle=1;align=center;verticalAlign=top;childLayout=stackLayout;horizontal=1;startSize=24;horizontalStack=0;resizeParent=1;resizeParentMax=0;resizeLast=0;collapsible=0;marginBottom=0;" vertex="1" parent="1">
          <mxGeometry x="483" y="2840" width="209" height="36" as="geometry" />
        </mxCell>
        <mxCell id="DHZ5L4yzA53gt9P-dgy5-194" style="line;strokeWidth=1;fillColor=none;align=left;verticalAlign=middle;spacingTop=-1;spacingLeft=3;spacingRight=3;rotatable=0;labelPosition=right;points=[];portConstraint=eastwest;strokeColor=inherit;" vertex="1" parent="DHZ5L4yzA53gt9P-dgy5-193">
          <mxGeometry y="24" width="209" height="12" as="geometry" />
        </mxCell>
        <mxCell id="DHZ5L4yzA53gt9P-dgy5-195" value="has" style="startArrow=none;endArrow=open;endSize=12;exitX=0.5;exitY=1;entryX=0.5;entryY=0;rounded=0;edgeStyle=orthogonalEdgeStyle;" edge="1" parent="1" source="DHZ5L4yzA53gt9P-dgy5-1" target="DHZ5L4yzA53gt9P-dgy5-17">
          <mxGeometry relative="1" as="geometry" />
        </mxCell>
        <mxCell id="DHZ5L4yzA53gt9P-dgy5-196" value="has" style="startArrow=none;endArrow=open;endSize=12;exitX=1;exitY=0.92;entryX=0.5;entryY=0;rounded=0;edgeStyle=orthogonalEdgeStyle;" edge="1" parent="1" source="DHZ5L4yzA53gt9P-dgy5-17" target="DHZ5L4yzA53gt9P-dgy5-83">
          <mxGeometry relative="1" as="geometry" />
        </mxCell>
        <mxCell id="DHZ5L4yzA53gt9P-dgy5-197" value="has" style="startArrow=none;endArrow=open;endSize=12;exitX=0;exitY=0.67;entryX=0.1;entryY=0;rounded=0;edgeStyle=orthogonalEdgeStyle;" edge="1" parent="1" source="DHZ5L4yzA53gt9P-dgy5-17" target="DHZ5L4yzA53gt9P-dgy5-123">
          <mxGeometry relative="1" as="geometry" />
        </mxCell>
        <mxCell id="DHZ5L4yzA53gt9P-dgy5-198" value="has" style="startArrow=none;endArrow=open;endSize=12;exitX=0.18;exitY=1;entryX=0.47;entryY=0;rounded=0;edgeStyle=orthogonalEdgeStyle;" edge="1" parent="1" source="DHZ5L4yzA53gt9P-dgy5-17" target="DHZ5L4yzA53gt9P-dgy5-193">
          <mxGeometry relative="1" as="geometry" />
        </mxCell>
        <mxCell id="DHZ5L4yzA53gt9P-dgy5-199" value="has" style="startArrow=none;endArrow=open;endSize=12;exitX=1;exitY=0.7;entryX=0.31;entryY=0;rounded=0;edgeStyle=orthogonalEdgeStyle;" edge="1" parent="1" source="DHZ5L4yzA53gt9P-dgy5-17" target="DHZ5L4yzA53gt9P-dgy5-173">
          <mxGeometry relative="1" as="geometry" />
        </mxCell>
        <mxCell id="DHZ5L4yzA53gt9P-dgy5-200" value="has" style="startArrow=none;endArrow=open;endSize=12;exitX=0.78;exitY=1;entryX=0.18;entryY=0;rounded=0;edgeStyle=orthogonalEdgeStyle;" edge="1" parent="1" source="DHZ5L4yzA53gt9P-dgy5-39" target="DHZ5L4yzA53gt9P-dgy5-63">
          <mxGeometry relative="1" as="geometry" />
        </mxCell>
        <mxCell id="DHZ5L4yzA53gt9P-dgy5-201" value="has" style="startArrow=none;endArrow=open;endSize=12;exitX=0.5;exitY=0;entryX=0.5;entryY=1;rounded=0;edgeStyle=orthogonalEdgeStyle;" edge="1" parent="1" source="DHZ5L4yzA53gt9P-dgy5-39" target="DHZ5L4yzA53gt9P-dgy5-83">
          <mxGeometry relative="1" as="geometry" />
        </mxCell>
        <mxCell id="DHZ5L4yzA53gt9P-dgy5-202" value="has" style="startArrow=none;endArrow=open;endSize=12;exitX=0;exitY=0.68;entryX=0;entryY=0.26;rounded=0;edgeStyle=orthogonalEdgeStyle;" edge="1" parent="1" source="DHZ5L4yzA53gt9P-dgy5-39" target="DHZ5L4yzA53gt9P-dgy5-142">
          <mxGeometry relative="1" as="geometry" />
        </mxCell>
        <mxCell id="DHZ5L4yzA53gt9P-dgy5-203" value="has" style="startArrow=none;endArrow=open;endSize=12;exitX=1;exitY=0.7;entryX=0.24;entryY=0;rounded=0;edgeStyle=orthogonalEdgeStyle;" edge="1" parent="1" source="DHZ5L4yzA53gt9P-dgy5-39" target="DHZ5L4yzA53gt9P-dgy5-158">
          <mxGeometry relative="1" as="geometry" />
        </mxCell>
        <mxCell id="DHZ5L4yzA53gt9P-dgy5-204" value="has" style="startArrow=none;endArrow=open;endSize=12;exitX=0;exitY=0.84;entryX=0.49;entryY=0;rounded=0;edgeStyle=orthogonalEdgeStyle;" edge="1" parent="1" source="DHZ5L4yzA53gt9P-dgy5-39" target="DHZ5L4yzA53gt9P-dgy5-193">
          <mxGeometry relative="1" as="geometry" />
        </mxCell>
        <mxCell id="DHZ5L4yzA53gt9P-dgy5-205" value="has" style="startArrow=none;endArrow=open;endSize=12;exitX=0.96;exitY=0;entryX=0.14;entryY=1;rounded=0;edgeStyle=orthogonalEdgeStyle;" edge="1" parent="1" source="DHZ5L4yzA53gt9P-dgy5-39" target="DHZ5L4yzA53gt9P-dgy5-173">
          <mxGeometry relative="1" as="geometry" />
        </mxCell>
        <mxCell id="DHZ5L4yzA53gt9P-dgy5-206" value="has" style="startArrow=none;endArrow=open;endSize=12;exitX=0.5;exitY=1;entryX=1;entryY=0.25;rounded=0;edgeStyle=orthogonalEdgeStyle;" edge="1" parent="1" source="DHZ5L4yzA53gt9P-dgy5-63" target="DHZ5L4yzA53gt9P-dgy5-142">
          <mxGeometry relative="1" as="geometry" />
        </mxCell>
        <mxCell id="DHZ5L4yzA53gt9P-dgy5-207" value="has" style="startArrow=none;endArrow=open;endSize=12;exitX=1;exitY=0.78;entryX=0.5;entryY=0;rounded=0;edgeStyle=orthogonalEdgeStyle;" edge="1" parent="1" source="DHZ5L4yzA53gt9P-dgy5-63" target="DHZ5L4yzA53gt9P-dgy5-158">
          <mxGeometry relative="1" as="geometry" />
        </mxCell>
        <mxCell id="DHZ5L4yzA53gt9P-dgy5-208" value="has" style="startArrow=none;endArrow=open;endSize=12;exitX=0.91;exitY=0;entryX=0.65;entryY=1;rounded=0;edgeStyle=orthogonalEdgeStyle;" edge="1" parent="1" source="DHZ5L4yzA53gt9P-dgy5-63" target="DHZ5L4yzA53gt9P-dgy5-173">
          <mxGeometry relative="1" as="geometry" />
        </mxCell>
        <mxCell id="DHZ5L4yzA53gt9P-dgy5-209" value="has" style="startArrow=none;endArrow=open;endSize=12;exitX=0;exitY=0.59;entryX=0.5;entryY=0;rounded=0;edgeStyle=orthogonalEdgeStyle;" edge="1" parent="1" source="DHZ5L4yzA53gt9P-dgy5-83" target="DHZ5L4yzA53gt9P-dgy5-107">
          <mxGeometry relative="1" as="geometry" />
        </mxCell>
        <mxCell id="DHZ5L4yzA53gt9P-dgy5-210" value="has" style="startArrow=none;endArrow=open;endSize=12;exitX=0;exitY=0.69;entryX=0.73;entryY=0;rounded=0;edgeStyle=orthogonalEdgeStyle;" edge="1" parent="1" source="DHZ5L4yzA53gt9P-dgy5-83" target="DHZ5L4yzA53gt9P-dgy5-123">
          <mxGeometry relative="1" as="geometry" />
        </mxCell>
        <mxCell id="DHZ5L4yzA53gt9P-dgy5-211" value="has" style="startArrow=none;endArrow=open;endSize=12;exitX=1;exitY=0.82;entryX=0.43;entryY=0;rounded=0;edgeStyle=orthogonalEdgeStyle;" edge="1" parent="1" source="DHZ5L4yzA53gt9P-dgy5-83" target="DHZ5L4yzA53gt9P-dgy5-173">
          <mxGeometry relative="1" as="geometry" />
        </mxCell>
        <mxCell id="DHZ5L4yzA53gt9P-dgy5-212" value="assigned to" style="startArrow=none;endArrow=open;endSize=12;exitX=0.51;exitY=0;entryX=0.5;entryY=1;rounded=0;edgeStyle=orthogonalEdgeStyle;" edge="1" parent="1" source="DHZ5L4yzA53gt9P-dgy5-193" target="DHZ5L4yzA53gt9P-dgy5-17">
          <mxGeometry relative="1" as="geometry" />
        </mxCell>
        <mxCell id="DHZ5L4yzA53gt9P-dgy5-213" value="assigned to" style="startArrow=none;endArrow=open;endSize=12;exitX=0.57;exitY=0;entryX=0.33;entryY=1;rounded=0;edgeStyle=orthogonalEdgeStyle;" edge="1" parent="1" source="DHZ5L4yzA53gt9P-dgy5-193" target="DHZ5L4yzA53gt9P-dgy5-39">
          <mxGeometry relative="1" as="geometry" />
        </mxCell>
        <mxCell id="DHZ5L4yzA53gt9P-dgy5-214" value="for" style="startArrow=none;endArrow=open;endSize=12;exitX=0.56;exitY=0;entryX=1;entryY=0.66;rounded=0;edgeStyle=orthogonalEdgeStyle;" edge="1" parent="1" source="DHZ5L4yzA53gt9P-dgy5-173" target="DHZ5L4yzA53gt9P-dgy5-17">
          <mxGeometry relative="1" as="geometry" />
        </mxCell>
        <mxCell id="DHZ5L4yzA53gt9P-dgy5-215" value="for" style="startArrow=none;endArrow=open;endSize=12;exitX=0;exitY=0.74;entryX=0.2;entryY=0;rounded=0;edgeStyle=orthogonalEdgeStyle;" edge="1" parent="1" source="DHZ5L4yzA53gt9P-dgy5-173" target="DHZ5L4yzA53gt9P-dgy5-39">
          <mxGeometry relative="1" as="geometry" />
        </mxCell>
        <mxCell id="DHZ5L4yzA53gt9P-dgy5-216" value="for" style="startArrow=none;endArrow=open;endSize=12;exitX=0.43;exitY=1;entryX=0.67;entryY=0;rounded=0;edgeStyle=orthogonalEdgeStyle;" edge="1" parent="1" source="DHZ5L4yzA53gt9P-dgy5-173" target="DHZ5L4yzA53gt9P-dgy5-63">
          <mxGeometry relative="1" as="geometry" />
        </mxCell>
        <mxCell id="DHZ5L4yzA53gt9P-dgy5-217" value="for" style="startArrow=none;endArrow=open;endSize=12;exitX=0.68;exitY=0;entryX=1;entryY=0.74;rounded=0;edgeStyle=orthogonalEdgeStyle;" edge="1" parent="1" source="DHZ5L4yzA53gt9P-dgy5-173" target="DHZ5L4yzA53gt9P-dgy5-83">
          <mxGeometry relative="1" as="geometry" />
        </mxCell>
      </root>
    </mxGraphModel>
  </diagram>
</mxfile>
